<svg xmlns="http://www.w3.org/2000/svg" width="100" height="100" viewBox="0 0 100 100" fill="none">
  <path d="M51.474 87.3582H45.058C43.8341 87.3571 42.6606 86.8705 41.7952 86.005C40.9297 85.1396 40.4431 83.9661 40.442 82.7422V79.6382H56.09V82.7422C56.0884 83.9659 55.6016 85.1391 54.7363 86.0044C53.8709 86.8698 52.6978 87.3566 51.474 87.3582ZM42.442 81.6382V82.7422C42.4425 83.4358 42.7183 84.1009 43.2088 84.5914C43.6993 85.0819 44.3644 85.3577 45.058 85.3582H51.474C52.1675 85.3571 52.8323 85.0812 53.3226 84.5908C53.813 84.1004 54.089 83.4357 54.09 82.7422V81.6382H42.442Z" fill="#FFBEB3"/>
  <path d="M94.522 14.8862H5.284V79.7262H94.522V14.8862Z" fill="#F2F2F2"/>
  <path opacity="0.26" d="M86.616 14.8862V71.5462C86.616 71.7054 86.5528 71.858 86.4403 71.9705C86.3277 72.083 86.1751 72.1462 86.016 72.1462H5.284V79.7262H94.522V14.8862H86.616Z" fill="#C3C7C9"/>
  <path d="M95.426 77.7339H4.38201C4.05064 77.7339 3.78201 78.0025 3.78201 78.3339V81.6199C3.78201 81.9513 4.05064 82.2199 4.38201 82.2199H95.426C95.7574 82.2199 96.026 81.9513 96.026 81.6199V78.3339C96.026 78.0025 95.7574 77.7339 95.426 77.7339Z" fill="#C3C7C9"/>
  <path d="M95.618 12.6421H4.574C4.24263 12.6421 3.974 12.9107 3.974 13.2421V16.5281C3.974 16.8595 4.24263 17.1281 4.574 17.1281H95.618C95.9494 17.1281 96.218 16.8595 96.218 16.5281V13.2421C96.218 12.9107 95.9494 12.6421 95.618 12.6421Z" fill="#C3C7C9"/>
  <path d="M44.184 26.166L36.28 44.152L55.708 41.242C55.215 37.9609 53.8998 34.858 51.8849 32.2219C49.8699 29.5859 47.2208 27.5026 44.184 26.166Z" fill="#24285B"/>
  <path d="M55.708 41.2422L36.28 44.1522L44.184 26.1662C40.1959 24.414 35.7384 24.0375 31.5128 25.0957C27.2872 26.154 23.5333 28.587 20.8418 32.012C18.1502 35.4371 16.6737 39.6597 16.6445 44.0157C16.6153 48.3717 18.0351 52.6138 20.6805 56.0746C23.3259 59.5354 27.0468 62.0185 31.2579 63.1333C35.4689 64.2481 39.931 63.9313 43.9423 62.2327C47.9536 60.5341 51.2863 57.5502 53.4162 53.7504C55.5461 49.9505 56.3523 45.5504 55.708 41.2422Z" fill="#0099F5"/>
  <path opacity="0.13" d="M55.708 41.242C55.215 37.9609 53.8998 34.8579 51.8849 32.2219C49.87 29.5859 47.2208 27.5026 44.184 26.166L43.152 28.516C45.5182 31.2963 47.059 34.6834 47.6 38.294C47.7374 39.2565 47.8042 40.2278 47.8 41.2C47.7984 46.41 45.7281 51.4061 42.0441 55.0901C38.3601 58.7741 33.364 60.8444 28.154 60.846C27.3236 60.8457 26.494 60.7936 25.67 60.69C28.8478 62.7253 32.5445 63.8025 36.3182 63.7928C40.0919 63.7832 43.783 62.6871 46.9504 60.6356C50.1177 58.584 52.6273 55.6639 54.1793 52.224C55.7313 48.7842 56.2599 44.9703 55.702 41.238L55.708 41.242Z" fill="#24285B"/>
  <path d="M77.73 48.896H82.69C83.0213 48.896 83.29 48.6274 83.29 48.296V29.946C83.29 29.6146 83.0213 29.346 82.69 29.346H77.73C77.3986 29.346 77.13 29.6146 77.13 29.946V48.296C77.13 48.6274 77.3986 48.896 77.73 48.896Z" fill="#24285B"/>
  <path d="M77.314 29.3442H78.47V46.5102C78.47 46.7102 78.552 46.8862 78.652 46.8862H83.29V48.5202C83.29 48.7202 83.208 48.8962 83.108 48.8962H77.308C77.206 48.8962 77.126 48.7282 77.126 48.5202V29.7202C77.132 29.5142 77.212 29.3442 77.314 29.3442Z" fill="#13183F"/>
  <path d="M69.5 48.896H74.46C74.7914 48.896 75.06 48.6274 75.06 48.296V24.39C75.06 24.0586 74.7914 23.79 74.46 23.79H69.5C69.1686 23.79 68.9 24.0586 68.9 24.39V48.296C68.9 48.6274 69.1686 48.896 69.5 48.896Z" fill="#0099F5"/>
  <path d="M69.084 23.7881H70.24V45.8321C70.24 46.0981 70.322 46.3141 70.422 46.3141H75.06V48.4121C75.06 48.6801 74.978 48.8961 74.878 48.8961H69.078C68.976 48.8961 68.894 48.6801 68.894 48.4121V24.2721C68.9 24.0001 68.982 23.7881 69.084 23.7881Z" fill="#006FF4"/>
  <path d="M63.9 70.49H55.384C55.1718 70.49 54.9684 70.4057 54.8183 70.2557C54.6683 70.1057 54.584 69.9022 54.584 69.69C54.584 69.4778 54.6683 69.2744 54.8183 69.1243C54.9684 68.9743 55.1718 68.89 55.384 68.89H63.52L70 60.906C70.0694 60.8206 70.1556 60.7504 70.2534 60.6998C70.3511 60.6492 70.4582 60.6193 70.568 60.612C70.6775 60.605 70.7872 60.6205 70.8905 60.6576C70.9937 60.6948 71.0882 60.7528 71.168 60.828L76.332 65.678L81.89 60.8C82.0506 60.6707 82.2548 60.6084 82.4602 60.626C82.6656 60.6436 82.8562 60.7398 82.9924 60.8945C83.1286 61.0493 83.1998 61.2506 83.1911 61.4566C83.1825 61.6625 83.0947 61.8572 82.946 62L76.846 67.346C76.6967 67.4768 76.504 67.5474 76.3055 67.5441C76.1071 67.5407 75.9169 67.4637 75.772 67.328L70.706 62.57L64.522 70.2C64.4463 70.2915 64.3513 70.3649 64.2437 70.4151C64.1361 70.4653 64.0187 70.4908 63.9 70.49Z" fill="#F0457D"/>
  <path d="M70.724 62.9501C71.5745 62.9501 72.264 62.2606 72.264 61.4101C72.264 60.5596 71.5745 59.8701 70.724 59.8701C69.8735 59.8701 69.184 60.5596 69.184 61.4101C69.184 62.2606 69.8735 62.9501 70.724 62.9501Z" fill="#F0457D"/>
  <path d="M82.796 62.6298C83.6465 62.6298 84.336 61.9403 84.336 61.0898C84.336 60.2393 83.6465 59.5498 82.796 59.5498C81.9455 59.5498 81.256 60.2393 81.256 61.0898C81.256 61.9403 81.9455 62.6298 82.796 62.6298Z" fill="#F0457D"/>
  <path d="M63.912 71.0058C64.7625 71.0058 65.452 70.3163 65.452 69.4658C65.452 68.6153 64.7625 67.9258 63.912 67.9258C63.0615 67.9258 62.372 68.6153 62.372 69.4658C62.372 70.3163 63.0615 71.0058 63.912 71.0058Z" fill="#F0457D"/>
</svg>