<svg xmlns="http://www.w3.org/2000/svg" width="80" height="73" viewBox="0 0 80 73" fill="none">
  <g clip-path="url(#clip0_48_503)">
    <path d="M1.30556 12.9722C-0.430549 11.2361 -0.430549 8.43053 1.30556 6.69442C3.04167 4.95831 5.86112 4.95831 7.59723 6.69442L34.2639 33.3611C36 35.0972 36 37.9166 34.2639 39.6528L7.59723 66.3194C5.86112 68.0555 3.04167 68.0555 1.30556 66.3194C-0.430549 64.5833 -0.430549 61.7639 1.30556 60.0277L24.8195 36.5L1.30556 12.9722ZM35.5556 58.7222H75.5556C78.0139 58.7222 80 60.7083 80 63.1666C80 65.625 78.0139 67.6111 75.5556 67.6111H35.5556C33.0972 67.6111 31.1111 65.625 31.1111 63.1666C31.1111 60.7083 33.0972 58.7222 35.5556 58.7222Z" fill="#69B97E"/>
  </g>
  <defs>
    <clipPath id="clip0_48_503">
      <rect width="80" height="71.1111" fill="white" transform="translate(0 0.944458)"/>
    </clipPath>
  </defs>
</svg>