<svg xmlns="http://www.w3.org/2000/svg" width="121" height="121" viewBox="0 0 121 121" fill="none">
  <g clip-path="url(#clip0_52_497)">
    <path d="M88.4832 38.8231L90.4278 41.1075L61.3387 65.8612L38.6968 99.1508L36.2162 97.4656L59.0871 63.8385L88.4832 38.8231Z" fill="#C3C7C9"/>
    <path d="M28.4328 58.6818L60.677 63.4019L101.18 84.1952L99.8103 86.8648L59.7488 66.2979L27.9999 61.6513L28.4328 58.6818Z" fill="#C3C7C9"/>
    <path d="M61.7084 64.7005L58.0838 28.6382L55.0988 28.9382L58.7235 65.0005L61.7084 64.7005Z" fill="#C3C7C9"/>
    <path d="M56.3342 48.841C47.4927 50.9832 42.0619 59.8872 44.204 68.7286C46.3462 77.57 55.2502 83.0009 64.0916 80.8587C72.933 78.7165 78.3638 69.8126 76.2217 60.9712C74.0795 52.1297 65.1756 46.6989 56.3342 48.841Z" fill="#24285B"/>
    <path d="M45.0672 58.3703C47.9912 56.2783 51.5195 55.2009 55.1134 55.3025C58.7072 55.404 62.1691 56.6791 64.9702 58.9329C67.7714 61.1867 69.7579 64.2953 70.6264 67.7841C71.495 71.2729 71.1978 74.9501 69.7802 78.2542C71.8489 76.7769 73.5475 74.8407 74.7431 72.5974C75.9387 70.3541 76.5988 67.8645 76.6718 65.3235C76.7447 62.7825 76.2285 60.2592 75.1635 57.951C74.0985 55.6428 72.5137 53.6124 70.5331 52.0189C68.5526 50.4254 66.2301 49.3119 63.7474 48.7657C61.2648 48.2195 58.6894 48.2554 56.2229 48.8705C53.7564 49.4857 51.4658 50.6634 49.5304 52.3115C47.595 53.9596 46.0674 56.0333 45.0672 58.3703Z" fill="#13183F"/>
    <path d="M54.339 19.4916C50.2769 20.4758 47.7817 24.5667 48.7659 28.6288C49.7501 32.691 53.841 35.1862 57.9032 34.202C61.9653 33.2178 64.4605 29.1269 63.4763 25.0647C62.4921 21.0026 58.4012 18.5074 54.339 19.4916Z" fill="#F0457D"/>
    <path d="M49.1624 23.8697C50.3877 22.995 51.846 22.5056 53.3509 22.464C54.8559 22.4225 56.339 22.8308 57.6106 23.6367C58.8823 24.4425 59.8847 25.6094 60.4897 26.988C61.0947 28.3666 61.2748 29.8943 61.0069 31.3757C60.905 31.936 60.7408 32.4831 60.5172 33.0069C61.4679 32.3282 62.2486 31.4386 62.7982 30.4078C63.3477 29.377 63.6512 28.233 63.6848 27.0654C63.7184 25.8977 63.4813 24.7382 62.992 23.6775C62.5027 22.6168 61.7745 21.6837 60.8645 20.9514C59.9544 20.2191 58.8872 19.7074 57.7464 19.4563C56.6055 19.2053 55.4221 19.2217 54.2887 19.5044C53.1553 19.787 52.1027 20.3282 51.2133 21.0856C50.324 21.8429 49.622 22.7958 49.1624 23.8697Z" fill="#DB2868"/>
    <path d="M35.6757 90.954C31.6135 91.9382 29.1183 96.0291 30.1025 100.091C31.0867 104.153 35.1776 106.649 39.2398 105.664C43.3019 104.68 45.7971 100.589 44.8129 96.5271C43.8287 92.465 39.7378 89.9698 35.6757 90.954Z" fill="#0099F5"/>
    <path opacity="0.09" d="M31.3534 102.782C31.2118 101.138 31.6119 99.4915 32.4928 98.0953C33.3736 96.699 34.6869 95.6291 36.2323 95.0485C37.7778 94.468 39.4707 94.4088 41.0529 94.8798C42.6352 95.3509 44.02 96.3264 44.9963 97.6577C44.8961 96.4937 44.5278 95.3687 43.9202 94.3709C43.3126 93.373 42.4823 92.5294 41.4942 91.906C40.5061 91.2827 39.3871 90.8966 38.2249 90.7779C37.0626 90.6593 35.8887 90.8113 34.795 91.2221C33.7013 91.6329 32.7176 92.2914 31.9209 93.1458C31.1242 94.0003 30.5362 95.0277 30.2028 96.1474C29.8695 97.2671 29.7999 98.4488 29.9995 99.5999C30.1991 100.751 30.6625 101.84 31.3534 102.782Z" fill="black"/>
    <path d="M98.7131 78.1752C94.651 79.1594 92.1558 83.2503 93.14 87.3124C94.1242 91.3746 98.2151 93.8698 102.277 92.8856C106.339 91.9014 108.835 87.8105 107.85 83.7483C106.866 79.6862 102.775 77.191 98.7131 78.1752Z" fill="#FFD44D"/>
    <path d="M100.588 93.0973C99.1649 92.2576 98.0561 90.9754 97.4306 89.4464C96.8051 87.9174 96.6971 86.2257 97.1233 84.6296C97.5495 83.0335 98.4864 81.6208 99.7908 80.6072C101.095 79.5935 102.696 79.0347 104.348 79.016C103.342 78.4213 102.213 78.0674 101.048 77.9821C99.8827 77.8968 98.7138 78.0822 97.6324 78.5241C96.5511 78.9659 95.5867 79.652 94.8148 80.5287C94.0428 81.4054 93.4843 82.4489 93.183 83.5775C92.8816 84.7061 92.8456 85.8891 93.0778 87.0339C93.3099 88.1787 93.8039 89.2543 94.5211 90.1763C95.2383 91.0984 96.1592 91.8419 97.2116 92.3486C98.2641 92.8554 99.4196 93.1116 100.588 93.0973Z" fill="#F9BB0D"/>
    <path d="M24.2372 51.7016C20.175 52.6858 17.6798 56.7766 18.664 60.8388C19.6483 64.901 23.7391 67.3961 27.8013 66.4119C31.8635 65.4277 34.3586 61.3369 33.3744 57.2747C32.3902 53.2125 28.2993 50.7174 24.2372 51.7016Z" fill="#9C5631"/>
    <path d="M26.1117 66.6237C24.689 65.784 23.5802 64.5018 22.9547 62.9728C22.3291 61.4438 22.2212 59.7521 22.6474 58.156C23.0736 56.5599 24.0104 55.1472 25.3149 54.1335C26.6194 53.1199 28.2197 52.561 29.8716 52.5423C28.8662 51.9477 27.7368 51.5938 26.5718 51.5085C25.4068 51.4231 24.2378 51.6086 23.1565 52.0504C22.0751 52.4922 21.1108 53.1783 20.3388 54.0551C19.5669 54.9318 19.0084 55.9753 18.707 57.1039C18.4057 58.2324 18.3697 59.4155 18.6018 60.5603C18.834 61.7051 19.328 62.7806 20.0451 63.7027C20.7623 64.6247 21.6832 65.3682 22.7357 65.875C23.7881 66.3817 24.9436 66.638 26.1117 66.6237Z" fill="#8E4728"/>
    <path d="M87.5201 31.9774C83.458 32.9616 80.9628 37.0525 81.947 41.1147C82.9312 45.1769 87.0221 47.672 91.0843 46.6878C95.1464 45.7036 97.6416 41.6127 96.6574 37.5506C95.6732 33.4884 91.5823 30.9932 87.5201 31.9774Z" fill="#FFBEB3"/>
    <path d="M89.3946 46.9C87.9719 46.0604 86.8632 44.7781 86.2376 43.2491C85.6121 41.7201 85.5041 40.0284 85.9303 38.4324C86.3565 36.8363 87.2934 35.4235 88.5978 34.4099C89.9023 33.3963 91.5027 32.8374 93.1546 32.8187C92.1492 32.224 91.0197 31.8702 89.8547 31.7848C88.6897 31.6995 87.5208 31.885 86.4395 32.3268C85.3581 32.7686 84.3937 33.4547 83.6218 34.3314C82.8498 35.2081 82.2913 36.2516 81.99 37.3802C81.6886 38.5088 81.6526 39.6918 81.8848 40.8366C82.1169 41.9815 82.6109 43.057 83.3281 43.979C84.0453 44.9011 84.9662 45.6446 86.0186 46.1514C87.0711 46.6581 88.2266 46.9144 89.3946 46.9Z" fill="#F2948B"/>
  </g>
  <defs>
    <clipPath id="clip0_52_497">
      <rect width="100" height="100" fill="white" transform="translate(120.735 97.188) rotate(166.38)"/>
    </clipPath>
  </defs>
</svg>