<svg xmlns="http://www.w3.org/2000/svg" width="1440" height="517" viewBox="0 0 1440 517" fill="none">
  <path d="M-361 0.400024L-330.65 19.5932C-300.3 38.0688 -239.6 77.5313 -178.9 86.5C-118.2 95.4688 -57.5 77.5313 3.20001 115.2C63.9 152.869 124.6 249.731 185.3 249.193C246 249.731 306.7 152.869 367.4 115.2C428.1 77.5313 488.8 95.4688 549.5 153.407C610.2 210.269 690.058 268.745 750.758 296.907C811.458 326.145 853 325.069 913.7 296.907C974.4 267.669 1035.1 249.731 1095.8 201.3C1156.5 152.869 1217.2 77.5313 1277.9 76.9932C1338.6 77.5313 1399.3 152.869 1429.65 191.793L1460 230V517H1429.65C1399.3 517 1338.6 517 1277.9 517C1217.2 517 1156.5 517 1095.8 517C1035.1 517 974.4 517 913.7 517C853 517 792.3 517 731.6 517C670.9 517 610.2 517 549.5 517C488.8 517 428.1 517 367.4 517C306.7 517 246 517 185.3 517C124.6 517 63.9 517 3.20001 517C-57.5 517 -118.2 517 -178.9 517C-239.6 517 -300.3 517 -330.65 517H-361V0.400024Z" fill="#2F3747"/>
</svg>