<svg xmlns="http://www.w3.org/2000/svg" width="1680" height="485" viewBox="0 0 1680 485" fill="none">
  <path d="M0 190.2L36.1042 173.916C72.2083 158.241 144.417 124.76 216.625 117.15C288.833 109.541 361.042 124.76 433.25 173.916C505.458 222.16 577.667 304.341 649.875 328.234C722.083 353.041 794.292 319.56 866.5 246.966C938.708 173.46 1010.92 60.8408 1083.12 19.7502C1155.33 -21.3405 1227.54 12.1408 1299.75 52.1661C1371.96 92.8002 1444.17 141.5 1516.38 198.266C1588.58 255.641 1660.79 319.56 1696.9 352.584L1733 385H1696.9C1660.79 385 1588.58 385 1516.38 385C1444.17 385 1371.96 385 1299.75 385C1227.54 385 1155.33 385 1083.12 385C1010.92 385 938.708 385 866.5 385C794.292 385 722.083 385 649.875 385C577.667 385 505.458 385 433.25 385C361.042 385 288.833 385 216.625 385C144.417 385 72.2083 385 36.1042 385H0V190.2Z" fill="#A3C5FF" fill-opacity="0.29"/>
</svg>