<svg width="516" height="210" viewBox="0 0 516 210" fill="none" xmlns="http://www.w3.org/2000/svg">
<path d="M209.543 115.229C209.231 115.229 208.937 115.163 208.631 115.137C211.483 120.331 211.54 124.909 208.806 129.343H240.563C237.806 124.56 237.809 120.011 240.571 115.229H209.543Z" fill="#425158"/>
<path d="M276.143 80H258V100.486H261.371C271.086 100.486 279 92.5714 279 82.8571C279 81.2857 277.714 80 276.143 80Z" fill="#829299"/>
<path d="M208.806 129.343H206.314C202.283 129.343 199 132.623 199 136.657V142.106C199 143.686 200.277 144.963 201.857 144.963H247.451C249.031 144.963 250.309 143.686 250.309 142.106V136.657C250.309 132.626 247.029 129.343 242.994 129.343H240.56H208.806Z" fill="#8B9CA5"/>
<path d="M258 80H201.857C200.286 80 199 81.2857 199 82.8571V104.714C199 110.203 203.26 114.666 208.631 115.137C208.937 115.163 209.231 115.229 209.543 115.229H240.571H247.457C253.257 115.229 258 110.514 258 104.714V100.486V80Z" fill="#8B9CA5"/>
<path d="M33.0966 82.4545V90.9773H2.27273V82.4545H33.0966ZM10.7244 137V76.1335C10.7244 72.7244 11.4702 69.8954 12.9616 67.6463C14.4531 65.3736 16.4299 63.6809 18.892 62.5682C21.3542 61.4318 24.0294 60.8636 26.9176 60.8636C29.0483 60.8636 30.8712 61.0412 32.3864 61.3963C33.9015 61.7277 35.026 62.0355 35.7599 62.3196L33.2741 70.9134C32.777 70.7713 32.1378 70.6056 31.3565 70.4162C30.5753 70.2031 29.6283 70.0966 28.5156 70.0966C25.9351 70.0966 24.0885 70.7358 22.9759 72.0142C21.8868 73.2926 21.3423 75.1392 21.3423 77.554V137H10.7244ZM64.8793 138.101C59.7656 138.101 55.303 136.929 51.4915 134.585C47.6799 132.241 44.7206 128.963 42.6136 124.749C40.5066 120.535 39.4531 115.61 39.4531 109.976C39.4531 104.318 40.5066 99.3698 42.6136 95.1321C44.7206 90.8944 47.6799 87.6037 51.4915 85.2599C55.303 82.9162 59.7656 81.7443 64.8793 81.7443C69.9929 81.7443 74.4555 82.9162 78.267 85.2599C82.0786 87.6037 85.0379 90.8944 87.1449 95.1321C89.2519 99.3698 90.3054 104.318 90.3054 109.976C90.3054 115.61 89.2519 120.535 87.1449 124.749C85.0379 128.963 82.0786 132.241 78.267 134.585C74.4555 136.929 69.9929 138.101 64.8793 138.101ZM64.9148 129.188C68.2292 129.188 70.9754 128.312 73.1534 126.56C75.3314 124.808 76.9413 122.476 77.983 119.564C79.0483 116.652 79.581 113.444 79.581 109.94C79.581 106.46 79.0483 103.264 77.983 100.352C76.9413 97.4167 75.3314 95.0611 73.1534 93.2855C70.9754 91.5099 68.2292 90.6222 64.9148 90.6222C61.5767 90.6222 58.8068 91.5099 56.6051 93.2855C54.4271 95.0611 52.8054 97.4167 51.7401 100.352C50.6984 103.264 50.1776 106.46 50.1776 109.94C50.1776 113.444 50.6984 116.652 51.7401 119.564C52.8054 122.476 54.4271 124.808 56.6051 126.56C58.8068 128.312 61.5767 129.188 64.9148 129.188ZM102.157 137V82.4545H112.42V91.1193H112.988C113.983 88.1837 115.734 85.8755 118.244 84.1946C120.777 82.4901 123.642 81.6378 126.838 81.6378C127.501 81.6378 128.282 81.6615 129.181 81.7088C130.105 81.7562 130.827 81.8153 131.348 81.8864V92.0426C130.922 91.9242 130.164 91.794 129.075 91.652C127.986 91.4863 126.897 91.4034 125.808 91.4034C123.298 91.4034 121.061 91.9361 119.096 93.0014C117.155 94.0431 115.616 95.4991 114.48 97.3693C113.343 99.2159 112.775 101.323 112.775 103.69V137H102.157ZM161.452 158.591C157.12 158.591 153.391 158.023 150.266 156.886C147.165 155.75 144.632 154.247 142.667 152.376C140.702 150.506 139.234 148.458 138.263 146.233L147.39 142.469C148.029 143.51 148.881 144.611 149.947 145.771C151.036 146.955 152.504 147.961 154.35 148.79C156.22 149.618 158.623 150.033 161.559 150.033C165.584 150.033 168.91 149.05 171.538 147.085C174.165 145.144 175.479 142.043 175.479 137.781V127.057H174.805C174.165 128.217 173.242 129.507 172.035 130.928C170.851 132.348 169.218 133.579 167.134 134.621C165.051 135.662 162.34 136.183 159.002 136.183C154.693 136.183 150.811 135.177 147.354 133.165C143.922 131.129 141.199 128.134 139.187 124.18C137.198 120.203 136.204 115.314 136.204 109.514C136.204 103.714 137.186 98.7424 139.151 94.5994C141.14 90.4564 143.862 87.2841 147.319 85.0824C150.775 82.857 154.693 81.7443 159.073 81.7443C162.459 81.7443 165.193 82.3125 167.276 83.4489C169.36 84.5616 170.981 85.8636 172.141 87.3551C173.325 88.8466 174.237 90.1605 174.876 91.2969H175.657V82.4545H186.062V138.207C186.062 142.895 184.973 146.742 182.795 149.749C180.617 152.755 177.669 154.981 173.952 156.425C170.259 157.869 166.093 158.591 161.452 158.591ZM161.346 127.376C164.4 127.376 166.98 126.666 169.087 125.246C171.218 123.802 172.828 121.742 173.917 119.067C175.03 116.368 175.586 113.136 175.586 109.372C175.586 105.703 175.041 102.471 173.952 99.6776C172.863 96.884 171.265 94.706 169.158 93.1435C167.051 91.5573 164.447 90.7642 161.346 90.7642C158.15 90.7642 155.487 91.5928 153.356 93.25C151.225 94.8835 149.615 97.1089 148.526 99.9261C147.461 102.743 146.928 105.892 146.928 109.372C146.928 112.947 147.473 116.084 148.562 118.783C149.651 121.482 151.261 123.589 153.391 125.104C155.546 126.619 158.197 127.376 161.346 127.376Z" fill="#2F3747"/>
<path d="M291.99 143V70.2727H302.608V97.2969H303.247C303.863 96.1605 304.75 94.8466 305.911 93.3551C307.071 91.8636 308.68 90.5616 310.74 89.4489C312.8 88.3125 315.522 87.7443 318.908 87.7443C323.311 87.7443 327.241 88.857 330.697 91.0824C334.154 93.3078 336.865 96.5156 338.83 100.706C340.818 104.896 341.812 109.939 341.812 115.834C341.812 121.729 340.83 126.783 338.865 130.997C336.9 135.187 334.201 138.419 330.768 140.692C327.336 142.941 323.418 144.065 319.014 144.065C315.7 144.065 312.989 143.509 310.882 142.396C308.799 141.284 307.165 139.982 305.982 138.49C304.798 136.999 303.886 135.673 303.247 134.513H302.359V143H291.99ZM302.395 115.727C302.395 119.562 302.951 122.924 304.064 125.812C305.177 128.701 306.786 130.962 308.893 132.595C311 134.205 313.581 135.01 316.635 135.01C319.807 135.01 322.459 134.17 324.589 132.489C326.72 130.784 328.33 128.476 329.419 125.564C330.532 122.652 331.088 119.373 331.088 115.727C331.088 112.129 330.544 108.897 329.455 106.033C328.389 103.168 326.779 100.907 324.625 99.25C322.494 97.5928 319.831 96.7642 316.635 96.7642C313.557 96.7642 310.953 97.5573 308.822 99.1435C306.715 100.73 305.117 102.943 304.028 105.784C302.939 108.625 302.395 111.939 302.395 115.727ZM369.609 144.207C366.153 144.207 363.028 143.568 360.234 142.29C357.44 140.988 355.227 139.106 353.593 136.643C351.984 134.181 351.179 131.163 351.179 127.588C351.179 124.51 351.77 121.977 352.954 119.989C354.138 118 355.736 116.426 357.748 115.266C359.761 114.106 362.01 113.23 364.495 112.638C366.981 112.046 369.514 111.596 372.095 111.288C375.362 110.91 378.013 110.602 380.049 110.365C382.085 110.105 383.565 109.69 384.488 109.122C385.412 108.554 385.873 107.631 385.873 106.352V106.104C385.873 103.002 384.997 100.599 383.245 98.8949C381.517 97.1903 378.937 96.3381 375.504 96.3381C371.929 96.3381 369.112 97.1312 367.052 98.7173C365.016 100.28 363.608 102.02 362.826 103.938L352.848 101.665C354.031 98.3504 355.76 95.6752 358.032 93.6392C360.329 91.5795 362.968 90.0881 365.951 89.1648C368.934 88.2178 372.071 87.7443 375.362 87.7443C377.54 87.7443 379.848 88.0047 382.287 88.5256C384.749 89.0227 387.045 89.946 389.176 91.2955C391.33 92.6449 393.094 94.5743 394.467 97.0838C395.84 99.5696 396.527 102.801 396.527 106.778V143H386.157V135.543H385.731C385.045 136.916 384.015 138.265 382.642 139.591C381.269 140.917 379.505 142.018 377.35 142.893C375.196 143.769 372.616 144.207 369.609 144.207ZM371.917 135.685C374.853 135.685 377.362 135.105 379.446 133.945C381.553 132.785 383.151 131.269 384.24 129.399C385.352 127.505 385.909 125.481 385.909 123.327V116.295C385.53 116.674 384.796 117.029 383.707 117.361C382.642 117.669 381.422 117.941 380.049 118.178C378.676 118.391 377.339 118.592 376.037 118.781C374.734 118.947 373.645 119.089 372.77 119.207C370.71 119.468 368.828 119.906 367.123 120.521C365.442 121.137 364.093 122.025 363.075 123.185C362.081 124.321 361.583 125.836 361.583 127.73C361.583 130.358 362.554 132.347 364.495 133.696C366.437 135.022 368.911 135.685 371.917 135.685ZM451.543 101.771L441.919 103.476C441.517 102.245 440.877 101.073 440.001 99.9602C439.149 98.8475 437.989 97.9361 436.521 97.2259C435.054 96.5156 433.219 96.1605 431.017 96.1605C428.01 96.1605 425.501 96.8352 423.489 98.1847C421.476 99.5104 420.47 101.227 420.47 103.334C420.47 105.157 421.145 106.625 422.494 107.737C423.844 108.85 426.022 109.761 429.028 110.472L437.693 112.46C442.712 113.62 446.453 115.408 448.915 117.822C451.377 120.237 452.608 123.374 452.608 127.233C452.608 130.5 451.661 133.412 449.767 135.969C447.897 138.502 445.281 140.491 441.919 141.935C438.581 143.379 434.71 144.101 430.307 144.101C424.199 144.101 419.215 142.799 415.357 140.195C411.498 137.567 409.13 133.838 408.254 129.009L418.517 127.446C419.156 130.121 420.47 132.145 422.459 133.518C424.447 134.868 427.04 135.543 430.236 135.543C433.716 135.543 436.498 134.821 438.581 133.376C440.664 131.909 441.706 130.121 441.706 128.014C441.706 126.31 441.067 124.877 439.788 123.717C438.534 122.557 436.604 121.681 434 121.089L424.767 119.065C419.677 117.905 415.913 116.059 413.474 113.526C411.06 110.992 409.852 107.785 409.852 103.902C409.852 100.682 410.752 97.8651 412.551 95.4503C414.35 93.0355 416.836 91.1534 420.009 89.804C423.181 88.4309 426.815 87.7443 430.911 87.7443C436.805 87.7443 441.446 89.0227 444.831 91.5795C448.216 94.1127 450.454 97.5099 451.543 101.771ZM487.791 144.101C482.417 144.101 477.788 142.953 473.906 140.656C470.047 138.336 467.064 135.081 464.957 130.891C462.874 126.677 461.832 121.741 461.832 116.082C461.832 110.495 462.874 105.571 464.957 101.31C467.064 97.0483 470 93.7221 473.764 91.331C477.552 88.9399 481.979 87.7443 487.045 87.7443C490.123 87.7443 493.106 88.2533 495.994 89.2713C498.882 90.2893 501.475 91.8873 503.771 94.0653C506.067 96.2434 507.878 99.0724 509.204 102.553C510.53 106.009 511.193 110.211 511.193 115.159V118.923H467.833V110.969H500.788C500.788 108.175 500.22 105.701 499.083 103.547C497.947 101.369 496.349 99.6525 494.289 98.3977C492.253 97.143 489.862 96.5156 487.116 96.5156C484.133 96.5156 481.529 97.2495 479.304 98.7173C477.102 100.161 475.397 102.055 474.19 104.399C473.006 106.719 472.414 109.241 472.414 111.963V118.178C472.414 121.823 473.054 124.925 474.332 127.482C475.634 130.038 477.445 131.991 479.765 133.341C482.085 134.667 484.796 135.33 487.897 135.33C489.91 135.33 491.744 135.045 493.402 134.477C495.059 133.885 496.491 133.009 497.699 131.849C498.906 130.689 499.829 129.257 500.468 127.553L510.518 129.364C509.713 132.323 508.269 134.915 506.186 137.141C504.126 139.342 501.534 141.059 498.409 142.29C495.307 143.497 491.768 144.101 487.791 144.101Z" fill="#69B97E"/>
</svg>
