<svg width="516" height="232" viewBox="0 0 516 232" fill="none" xmlns="http://www.w3.org/2000/svg">
<path d="M209.543 115.229C209.231 115.229 208.937 115.163 208.631 115.137C211.483 120.331 211.54 124.909 208.806 129.343H240.563C237.806 124.56 237.809 120.011 240.571 115.229H209.543Z" fill="#425158"/>
<path d="M276.143 80H258V100.486H261.371C271.086 100.486 279 92.5714 279 82.8571C279 81.2857 277.714 80 276.143 80Z" fill="#829299"/>
<path d="M208.806 129.343H206.314C202.283 129.343 199 132.623 199 136.657V142.106C199 143.686 200.277 144.963 201.857 144.963H247.451C249.031 144.963 250.309 143.686 250.309 142.106V136.657C250.309 132.626 247.029 129.343 242.994 129.343H240.56H208.806Z" fill="#8B9CA5"/>
<path d="M258 80H201.857C200.286 80 199 81.2857 199 82.8571V104.714C199 110.203 203.26 114.666 208.631 115.137C208.937 115.163 209.231 115.229 209.543 115.229H240.571H247.457C253.257 115.229 258 110.514 258 104.714V100.486V80Z" fill="#8B9CA5"/>
<path d="M33.0966 82.4545V90.9773H2.27273V82.4545H33.0966ZM10.7244 137V76.1335C10.7244 72.7244 11.4702 69.8954 12.9616 67.6463C14.4531 65.3736 16.4299 63.6809 18.892 62.5682C21.3542 61.4318 24.0294 60.8636 26.9176 60.8636C29.0483 60.8636 30.8712 61.0412 32.3864 61.3963C33.9015 61.7277 35.026 62.0355 35.7599 62.3196L33.2741 70.9134C32.777 70.7713 32.1378 70.6056 31.3565 70.4162C30.5753 70.2031 29.6283 70.0966 28.5156 70.0966C25.9351 70.0966 24.0885 70.7358 22.9759 72.0142C21.8868 73.2926 21.3423 75.1392 21.3423 77.554V137H10.7244ZM64.8793 138.101C59.7656 138.101 55.303 136.929 51.4915 134.585C47.6799 132.241 44.7206 128.963 42.6136 124.749C40.5066 120.535 39.4531 115.61 39.4531 109.976C39.4531 104.318 40.5066 99.3698 42.6136 95.1321C44.7206 90.8944 47.6799 87.6037 51.4915 85.2599C55.303 82.9162 59.7656 81.7443 64.8793 81.7443C69.9929 81.7443 74.4555 82.9162 78.267 85.2599C82.0786 87.6037 85.0379 90.8944 87.1449 95.1321C89.2519 99.3698 90.3054 104.318 90.3054 109.976C90.3054 115.61 89.2519 120.535 87.1449 124.749C85.0379 128.963 82.0786 132.241 78.267 134.585C74.4555 136.929 69.9929 138.101 64.8793 138.101ZM64.9148 129.188C68.2292 129.188 70.9754 128.312 73.1534 126.56C75.3314 124.808 76.9413 122.476 77.983 119.564C79.0483 116.652 79.581 113.444 79.581 109.94C79.581 106.46 79.0483 103.264 77.983 100.352C76.9413 97.4167 75.3314 95.0611 73.1534 93.2855C70.9754 91.5099 68.2292 90.6222 64.9148 90.6222C61.5767 90.6222 58.8068 91.5099 56.6051 93.2855C54.4271 95.0611 52.8054 97.4167 51.7401 100.352C50.6984 103.264 50.1776 106.46 50.1776 109.94C50.1776 113.444 50.6984 116.652 51.7401 119.564C52.8054 122.476 54.4271 124.808 56.6051 126.56C58.8068 128.312 61.5767 129.188 64.9148 129.188ZM102.157 137V82.4545H112.42V91.1193H112.988C113.983 88.1837 115.734 85.8755 118.244 84.1946C120.777 82.4901 123.642 81.6378 126.838 81.6378C127.501 81.6378 128.282 81.6615 129.181 81.7088C130.105 81.7562 130.827 81.8153 131.348 81.8864V92.0426C130.922 91.9242 130.164 91.794 129.075 91.652C127.986 91.4863 126.897 91.4034 125.808 91.4034C123.298 91.4034 121.061 91.9361 119.096 93.0014C117.155 94.0431 115.616 95.4991 114.48 97.3693C113.343 99.2159 112.775 101.323 112.775 103.69V137H102.157ZM161.452 158.591C157.12 158.591 153.391 158.023 150.266 156.886C147.165 155.75 144.632 154.247 142.667 152.376C140.702 150.506 139.234 148.458 138.263 146.233L147.39 142.469C148.029 143.51 148.881 144.611 149.947 145.771C151.036 146.955 152.504 147.961 154.35 148.79C156.22 149.618 158.623 150.033 161.559 150.033C165.584 150.033 168.91 149.05 171.538 147.085C174.165 145.144 175.479 142.043 175.479 137.781V127.057H174.805C174.165 128.217 173.242 129.507 172.035 130.928C170.851 132.348 169.218 133.579 167.134 134.621C165.051 135.662 162.34 136.183 159.002 136.183C154.693 136.183 150.811 135.177 147.354 133.165C143.922 131.129 141.199 128.134 139.187 124.18C137.198 120.203 136.204 115.314 136.204 109.514C136.204 103.714 137.186 98.7424 139.151 94.5994C141.14 90.4564 143.862 87.2841 147.319 85.0824C150.775 82.857 154.693 81.7443 159.073 81.7443C162.459 81.7443 165.193 82.3125 167.276 83.4489C169.36 84.5616 170.981 85.8636 172.141 87.3551C173.325 88.8466 174.237 90.1605 174.876 91.2969H175.657V82.4545H186.062V138.207C186.062 142.895 184.973 146.742 182.795 149.749C180.617 152.755 177.669 154.981 173.952 156.425C170.259 157.869 166.093 158.591 161.452 158.591ZM161.346 127.376C164.4 127.376 166.98 126.666 169.087 125.246C171.218 123.802 172.828 121.742 173.917 119.067C175.03 116.368 175.586 113.136 175.586 109.372C175.586 105.703 175.041 102.471 173.952 99.6776C172.863 96.884 171.265 94.706 169.158 93.1435C167.051 91.5573 164.447 90.7642 161.346 90.7642C158.15 90.7642 155.487 91.5928 153.356 93.25C151.225 94.8835 149.615 97.1089 148.526 99.9261C147.461 102.743 146.928 105.892 146.928 109.372C146.928 112.947 147.473 116.084 148.562 118.783C149.651 121.482 151.261 123.589 153.391 125.104C155.546 126.619 158.197 127.376 161.346 127.376Z" fill="#2F3747"/>
<path d="M291.99 143V70.2727H302.608V97.2969H303.247C303.863 96.1605 304.75 94.8466 305.911 93.3551C307.071 91.8636 308.68 90.5616 310.74 89.4489C312.8 88.3125 315.522 87.7443 318.908 87.7443C323.311 87.7443 327.241 88.857 330.697 91.0824C334.154 93.3078 336.865 96.5156 338.83 100.706C340.818 104.896 341.812 109.939 341.812 115.834C341.812 121.729 340.83 126.783 338.865 130.997C336.9 135.187 334.201 138.419 330.768 140.692C327.336 142.941 323.418 144.065 319.014 144.065C315.7 144.065 312.989 143.509 310.882 142.396C308.799 141.284 307.165 139.982 305.982 138.49C304.798 136.999 303.886 135.673 303.247 134.513H302.359V143H291.99ZM302.395 115.727C302.395 119.562 302.951 122.924 304.064 125.812C305.177 128.701 306.786 130.962 308.893 132.595C311 134.205 313.581 135.01 316.635 135.01C319.807 135.01 322.459 134.17 324.589 132.489C326.72 130.784 328.33 128.476 329.419 125.564C330.532 122.652 331.088 119.373 331.088 115.727C331.088 112.129 330.544 108.897 329.455 106.033C328.389 103.168 326.779 100.907 324.625 99.25C322.494 97.5928 319.831 96.7642 316.635 96.7642C313.557 96.7642 310.953 97.5573 308.822 99.1435C306.715 100.73 305.117 102.943 304.028 105.784C302.939 108.625 302.395 111.939 302.395 115.727ZM369.609 144.207C366.153 144.207 363.028 143.568 360.234 142.29C357.44 140.988 355.227 139.106 353.593 136.643C351.984 134.181 351.179 131.163 351.179 127.588C351.179 124.51 351.77 121.977 352.954 119.989C354.138 118 355.736 116.426 357.748 115.266C359.761 114.106 362.01 113.23 364.495 112.638C366.981 112.046 369.514 111.596 372.095 111.288C375.362 110.91 378.013 110.602 380.049 110.365C382.085 110.105 383.565 109.69 384.488 109.122C385.412 108.554 385.873 107.631 385.873 106.352V106.104C385.873 103.002 384.997 100.599 383.245 98.8949C381.517 97.1903 378.937 96.3381 375.504 96.3381C371.929 96.3381 369.112 97.1312 367.052 98.7173C365.016 100.28 363.608 102.02 362.826 103.938L352.848 101.665C354.031 98.3504 355.76 95.6752 358.032 93.6392C360.329 91.5795 362.968 90.0881 365.951 89.1648C368.934 88.2178 372.071 87.7443 375.362 87.7443C377.54 87.7443 379.848 88.0047 382.287 88.5256C384.749 89.0227 387.045 89.946 389.176 91.2955C391.33 92.6449 393.094 94.5743 394.467 97.0838C395.84 99.5696 396.527 102.801 396.527 106.778V143H386.157V135.543H385.731C385.045 136.916 384.015 138.265 382.642 139.591C381.269 140.917 379.505 142.018 377.35 142.893C375.196 143.769 372.616 144.207 369.609 144.207ZM371.917 135.685C374.853 135.685 377.362 135.105 379.446 133.945C381.553 132.785 383.151 131.269 384.24 129.399C385.352 127.505 385.909 125.481 385.909 123.327V116.295C385.53 116.674 384.796 117.029 383.707 117.361C382.642 117.669 381.422 117.941 380.049 118.178C378.676 118.391 377.339 118.592 376.037 118.781C374.734 118.947 373.645 119.089 372.77 119.207C370.71 119.468 368.828 119.906 367.123 120.521C365.442 121.137 364.093 122.025 363.075 123.185C362.081 124.321 361.583 125.836 361.583 127.73C361.583 130.358 362.554 132.347 364.495 133.696C366.437 135.022 368.911 135.685 371.917 135.685ZM451.543 101.771L441.919 103.476C441.517 102.245 440.877 101.073 440.001 99.9602C439.149 98.8475 437.989 97.9361 436.521 97.2259C435.054 96.5156 433.219 96.1605 431.017 96.1605C428.01 96.1605 425.501 96.8352 423.489 98.1847C421.476 99.5104 420.47 101.227 420.47 103.334C420.47 105.157 421.145 106.625 422.494 107.737C423.844 108.85 426.022 109.761 429.028 110.472L437.693 112.46C442.712 113.62 446.453 115.408 448.915 117.822C451.377 120.237 452.608 123.374 452.608 127.233C452.608 130.5 451.661 133.412 449.767 135.969C447.897 138.502 445.281 140.491 441.919 141.935C438.581 143.379 434.71 144.101 430.307 144.101C424.199 144.101 419.215 142.799 415.357 140.195C411.498 137.567 409.13 133.838 408.254 129.009L418.517 127.446C419.156 130.121 420.47 132.145 422.459 133.518C424.447 134.868 427.04 135.543 430.236 135.543C433.716 135.543 436.498 134.821 438.581 133.376C440.664 131.909 441.706 130.121 441.706 128.014C441.706 126.31 441.067 124.877 439.788 123.717C438.534 122.557 436.604 121.681 434 121.089L424.767 119.065C419.677 117.905 415.913 116.059 413.474 113.526C411.06 110.992 409.852 107.785 409.852 103.902C409.852 100.682 410.752 97.8651 412.551 95.4503C414.35 93.0355 416.836 91.1534 420.009 89.804C423.181 88.4309 426.815 87.7443 430.911 87.7443C436.805 87.7443 441.446 89.0227 444.831 91.5795C448.216 94.1127 450.454 97.5099 451.543 101.771ZM487.791 144.101C482.417 144.101 477.788 142.953 473.906 140.656C470.047 138.336 467.064 135.081 464.957 130.891C462.874 126.677 461.832 121.741 461.832 116.082C461.832 110.495 462.874 105.571 464.957 101.31C467.064 97.0483 470 93.7221 473.764 91.331C477.552 88.9399 481.979 87.7443 487.045 87.7443C490.123 87.7443 493.106 88.2533 495.994 89.2713C498.882 90.2893 501.475 91.8873 503.771 94.0653C506.067 96.2434 507.878 99.0724 509.204 102.553C510.53 106.009 511.193 110.211 511.193 115.159V118.923H467.833V110.969H500.788C500.788 108.175 500.22 105.701 499.083 103.547C497.947 101.369 496.349 99.6525 494.289 98.3977C492.253 97.143 489.862 96.5156 487.116 96.5156C484.133 96.5156 481.529 97.2495 479.304 98.7173C477.102 100.161 475.397 102.055 474.19 104.399C473.006 106.719 472.414 109.241 472.414 111.963V118.178C472.414 121.823 473.054 124.925 474.332 127.482C475.634 130.038 477.445 131.991 479.765 133.341C482.085 134.667 484.796 135.33 487.897 135.33C489.91 135.33 491.744 135.045 493.402 134.477C495.059 133.885 496.491 133.009 497.699 131.849C498.906 130.689 499.829 129.257 500.468 127.553L510.518 129.364C509.713 132.323 508.269 134.915 506.186 137.141C504.126 139.342 501.534 141.059 498.409 142.29C495.307 143.497 491.768 144.101 487.791 144.101Z" fill="#69B97E"/>
<path d="M230 190.924C230.003 190.701 230.057 190.481 230.156 190.282C230.256 190.082 230.399 189.908 230.575 189.771C230.911 189.459 231.35 189.281 231.809 189.273C232.24 189.267 232.662 189.4 233.013 189.651C233.343 189.874 233.585 190.204 233.699 190.586L237.68 204.095L242.395 190.845H242.415C242.746 190.261 243.33 189.969 244.166 189.969C244.538 189.966 244.906 190.052 245.24 190.218C245.537 190.351 245.782 190.578 245.936 190.865V190.884L250.512 203.776L254.193 190.606C254.309 190.234 254.538 189.907 254.849 189.671C255.195 189.401 255.624 189.261 256.063 189.274C256.515 189.284 256.951 189.449 257.297 189.741C257.482 189.873 257.633 190.048 257.737 190.251C257.841 190.453 257.895 190.678 257.895 190.905C257.902 191.14 257.875 191.375 257.815 191.602L252.601 209.984C252.484 210.351 252.259 210.673 251.954 210.909C251.631 211.189 251.218 211.341 250.791 211.337C250.395 211.342 250.008 211.219 249.686 210.988C249.384 210.784 249.146 210.497 249 210.163L244.185 196.853L239.291 210.282C239.158 210.641 238.91 210.945 238.585 211.148C238.257 211.363 237.873 211.477 237.481 211.476C237.075 211.478 236.679 211.345 236.357 211.098C236.036 210.87 235.801 210.541 235.69 210.163L230.06 191.62C230.017 191.391 229.997 191.158 230 190.924ZM269.472 189.354C271.18 189.339 272.859 189.793 274.327 190.667C275.786 191.53 277.007 192.744 277.878 194.199C278.775 195.683 279.24 197.388 279.221 199.123C279.221 199.502 279.201 199.88 279.161 200.257C279.111 200.743 278.871 201.189 278.495 201.5C278.132 201.828 277.66 202.008 277.172 202.008L263.266 202.027C263.5 203.001 263.934 203.915 264.539 204.713C265.151 205.538 265.926 206.229 266.816 206.742C267.708 207.258 268.721 207.525 269.751 207.517C270.831 207.534 271.894 207.244 272.816 206.681C273.645 206.191 274.364 205.534 274.925 204.751C275.107 204.479 275.358 204.26 275.651 204.116C275.934 203.955 276.252 203.866 276.577 203.857C276.839 203.854 277.099 203.906 277.341 204.009C277.582 204.112 277.799 204.264 277.979 204.455C278.167 204.639 278.316 204.859 278.417 205.102C278.518 205.344 278.569 205.605 278.566 205.868C278.572 206.275 278.446 206.672 278.208 207.002C277.314 208.276 276.157 209.345 274.816 210.136C273.304 211.036 271.57 211.494 269.811 211.456C268.347 211.469 266.898 211.163 265.564 210.561C264.276 209.978 263.116 209.146 262.151 208.114C261.18 207.076 260.414 205.864 259.893 204.543C259.353 203.185 259.08 201.736 259.087 200.275C259.081 198.86 259.351 197.458 259.882 196.147C260.402 194.857 261.154 193.673 262.1 192.655C263.038 191.642 264.164 190.821 265.415 190.238C266.685 189.645 268.071 189.343 269.472 189.352V189.354ZM275.123 198.027C274.872 196.729 274.183 195.556 273.173 194.704C272.154 193.8 270.834 193.31 269.472 193.332C268.066 193.317 266.703 193.819 265.643 194.742C264.591 195.602 263.813 196.75 263.404 198.045L275.123 198.027ZM303.495 200.355C303.502 201.79 303.238 203.214 302.719 204.552C302.216 205.856 301.474 207.053 300.531 208.084C299.597 209.106 298.471 209.934 297.218 210.521C295.919 211.126 294.501 211.432 293.068 211.418C291.775 211.404 290.504 211.083 289.358 210.484C288.159 209.895 287.129 209.012 286.364 207.917L286.124 209.526C286.06 210.028 285.88 210.509 285.597 210.929C285.461 211.123 285.276 211.279 285.062 211.381C284.848 211.484 284.611 211.53 284.374 211.515C284.112 211.519 283.853 211.468 283.612 211.367C283.37 211.266 283.152 211.117 282.971 210.929C282.783 210.747 282.633 210.529 282.532 210.288C282.431 210.047 282.381 209.787 282.384 209.526V184.12C282.381 183.858 282.431 183.599 282.532 183.358C282.633 183.117 282.783 182.899 282.971 182.717C283.152 182.529 283.37 182.38 283.612 182.279C283.853 182.178 284.112 182.127 284.374 182.13C284.635 182.127 284.894 182.178 285.136 182.279C285.377 182.38 285.595 182.529 285.776 182.717C285.965 182.899 286.114 183.117 286.215 183.358C286.316 183.599 286.366 183.858 286.363 184.12V192.496C287.178 191.54 288.159 190.738 289.258 190.129C290.387 189.53 291.65 189.229 292.927 189.253C294.272 189.251 295.604 189.515 296.847 190.029C298.091 190.536 299.226 191.279 300.189 192.217C301.274 193.279 302.119 194.561 302.668 195.976C303.214 197.371 303.494 198.856 303.493 200.355H303.495ZM293.108 207.437C294.285 207.454 295.438 207.107 296.41 206.442C297.381 205.777 298.168 204.877 298.698 203.826C299.253 202.753 299.54 201.562 299.534 200.354C299.538 199.139 299.248 197.941 298.688 196.862C298.149 195.795 297.352 194.879 296.371 194.196C295.385 193.512 294.209 193.153 293.008 193.172C291.815 193.152 290.644 193.492 289.646 194.147C288.666 194.795 287.871 195.686 287.338 196.733C286.778 197.822 286.491 199.03 286.502 200.254C286.502 201.185 286.667 202.107 286.988 202.98C287.295 203.838 287.765 204.628 288.372 205.308C288.981 205.967 289.719 206.495 290.54 206.86C291.344 207.235 292.22 207.432 293.108 207.437Z" fill="#00DE3B"/>
<path d="M315.282 207.549C314.246 207.569 313.212 207.44 312.213 207.165C311.446 206.91 311.318 206.567 311.318 205.759V203.16L306.972 203.459V210.191C309.529 211.384 312.171 211.938 315.58 211.938C321.459 211.938 325.893 208.87 325.893 203.245C325.893 197.748 321.802 196 317.924 194.765C314.728 193.784 312.256 193.06 312.256 190.418C312.256 187.776 314.216 186.754 316.73 186.754C317.665 186.739 318.597 186.854 319.5 187.095C320.267 187.351 320.395 187.693 320.395 188.502V190.973L324.742 190.674V184.283C322.235 183.111 319.498 182.514 316.73 182.534C310.85 182.534 306.843 185.688 306.843 190.887C306.843 196.341 310.764 198.046 314.983 199.198C317.966 200.008 320.395 200.775 320.395 203.459C320.395 206.654 318.095 207.549 315.282 207.549ZM333.393 185.432C332.498 187.862 331.475 190.162 328.492 190.418L328.066 193.529H331.092V204.907C331.092 207.89 331.049 211.981 337.697 211.981C339.701 211.982 341.832 211.384 343.109 210.489L341.832 207.208C340.965 207.763 339.963 208.072 338.934 208.103C337.187 208.103 336.164 207.336 336.164 204.736V193.529H341.404L341.83 189.949H336.163V185.432H333.393ZM347.37 206.611C347.37 207.677 346.944 207.932 346.134 208.018L344.728 208.145V211.384H356.149V208.018L352.441 207.847V197.961C352.441 195.489 354.018 193.657 356.319 193.657C356.714 193.636 357.108 193.709 357.47 193.87C357.811 194.04 357.896 194.424 357.896 194.935V196.895L361.859 196.596V190.247C360.588 189.615 359.186 189.294 357.768 189.31C356.498 189.307 355.255 189.666 354.183 190.345C353.111 191.025 352.255 191.996 351.716 193.145V189.949H344.515V193.401L346.305 193.529C347.115 193.571 347.37 193.87 347.37 194.807V206.611ZM383.549 190.801C381.118 189.898 378.556 189.394 375.964 189.31C368.293 189.31 364.712 194.083 364.712 201.583C364.712 207.676 367.226 211.937 373.235 211.937C374.384 211.938 375.516 211.659 376.533 211.125C377.551 210.59 378.422 209.816 379.073 208.869L379.201 208.912V211.384H385.979V207.975L384.615 207.89C383.806 207.847 383.55 207.591 383.55 206.654L383.549 190.801ZM378.607 204.608C378.607 206.44 376.987 208.316 374.345 208.316C370.766 208.316 369.913 204.949 369.913 201.412C369.913 196.81 371.277 193.017 375.325 193.017C376.444 192.995 377.557 193.183 378.607 193.571V204.608ZM391.221 206.611C391.221 207.677 390.795 207.932 389.985 208.018L388.579 208.145V211.384H398.721V207.975L396.291 207.847H396.248V203.117C397.228 202.988 398.196 202.788 399.146 202.519L404.005 211.384H410.227V207.975L407.627 207.847L403.451 200.347C405.667 198.6 406.818 196.426 407.201 193.486L409.247 193.401V189.949H400.425V193.273L402.044 193.358C402.642 193.358 403.067 193.742 402.726 194.765C401.831 197.534 399.274 199.154 396.248 199.452V181H388.664V184.537L390.155 184.622C390.965 184.665 391.221 184.921 391.221 185.858V206.611ZM422.969 189.31C415.978 189.31 412.443 194.85 412.443 201.157C412.443 207.506 415.255 211.938 422.498 211.938C426.504 211.938 429.317 210.148 429.999 209.552L428.379 206.1C426.833 207.277 424.954 207.934 423.011 207.975C419.389 207.975 417.94 205.716 417.77 202.947C422.798 202.904 429.915 201.796 429.915 195.233C429.915 191.441 427.145 189.31 422.969 189.31ZM425.227 195.319C425.227 198.6 420.753 199.324 417.599 199.367C417.727 196.213 419.261 192.932 422.67 192.932C424.204 192.932 425.227 193.74 425.227 195.319Z" fill="#404141"/>
<path d="M390.439 181.173H377.878V184.373H390.439V181.173Z" fill="#404141"/>
<path d="M390.252 181.338H378.064V184.208H390.252V181.338Z" stroke="#404141"/>
<path d="M377.882 181.406V184.293C377.882 184.361 377.852 184.422 377.801 184.46C377.749 184.499 377.686 184.507 377.628 184.482L374.166 183.039C374.055 182.993 374.047 182.882 374.047 182.85C374.047 182.817 374.055 182.706 374.166 182.66L377.628 181.217C377.686 181.193 377.749 181.201 377.801 181.239C377.852 181.278 377.882 181.339 377.882 181.406Z" fill="#404141"/>
<path d="M374.233 182.85L377.695 184.293V181.406L374.233 182.85ZM373.86 182.85C373.86 182.693 373.94 182.537 374.099 182.471L377.561 181.027C377.806 180.925 378.068 181.122 378.068 181.406V184.293C378.068 184.578 377.806 184.774 377.561 184.672L374.099 183.229C373.94 183.162 373.86 183.006 373.86 182.85Z" fill="#404141"/>
<path d="M184.51 200.157C184.51 201.783 184.225 203.328 183.653 204.793C183.082 206.258 182.276 207.562 181.236 208.704C180.196 209.832 178.973 210.726 177.567 211.385C176.175 212.044 174.652 212.374 172.997 212.374C171.634 212.374 170.265 212.029 168.888 211.341C167.525 210.652 166.427 209.708 165.592 208.506L165.328 210.286C165.24 210.887 165.042 211.407 164.735 211.846C164.442 212.271 163.995 212.483 163.395 212.483C162.794 212.483 162.274 212.271 161.834 211.846C161.41 211.407 161.197 210.887 161.197 210.286V182.227C161.197 181.626 161.41 181.114 161.834 180.689C162.274 180.25 162.794 180.03 163.395 180.03C163.995 180.03 164.508 180.25 164.933 180.689C165.372 181.114 165.592 181.626 165.592 182.227V191.478C166.544 190.379 167.606 189.507 168.778 188.863C169.964 188.218 171.319 187.896 172.843 187.896C174.337 187.896 175.78 188.182 177.171 188.753C178.563 189.324 179.793 190.13 180.863 191.17C182.079 192.371 182.987 193.755 183.587 195.323C184.203 196.89 184.51 198.501 184.51 200.157ZM173.041 207.979C174.403 207.979 175.619 207.613 176.688 206.88C177.757 206.148 178.6 205.188 179.215 204.002C179.83 202.801 180.138 201.519 180.138 200.157C180.138 198.794 179.823 197.513 179.193 196.312C178.578 195.096 177.728 194.114 176.644 193.367C175.56 192.605 174.322 192.225 172.931 192.225C171.539 192.225 170.301 192.583 169.217 193.301C168.133 194.019 167.284 194.971 166.668 196.158C166.053 197.344 165.746 198.641 165.746 200.047C165.746 201.072 165.921 202.076 166.273 203.057C166.639 204.039 167.152 204.896 167.811 205.628C168.47 206.346 169.269 206.917 170.206 207.342C171.144 207.767 172.088 207.979 173.041 207.979ZM188.377 187.808C188.802 187.808 189.198 187.933 189.564 188.182C189.945 188.431 190.216 188.738 190.377 189.104L197.848 206.089L204.242 189.258C204.403 188.863 204.667 188.533 205.033 188.27C205.414 188.006 205.831 187.874 206.285 187.874C206.886 187.874 207.398 188.094 207.823 188.533C208.263 188.958 208.482 189.471 208.482 190.071C208.482 190.379 208.424 190.665 208.307 190.928L200.221 212.022C200.191 212.212 200.14 212.381 200.067 212.527C199.994 212.674 199.92 212.806 199.847 212.923L198.617 215.999C198.309 216.761 197.943 217.566 197.518 218.416C197.093 219.28 196.507 220.093 195.76 220.855C195.042 221.602 194.164 222.232 193.124 222.745C192.098 223.257 191.021 223.514 189.894 223.514C189.278 223.514 188.758 223.287 188.333 222.833C187.909 222.393 187.696 221.873 187.696 221.272C187.696 220.687 187.894 220.174 188.29 219.734C188.7 219.31 189.19 219.09 189.762 219.075C191.051 218.987 192.047 218.482 192.75 217.559C193.453 216.651 194.054 215.574 194.552 214.329L195.606 211.648L186.378 190.95C186.246 190.643 186.18 190.328 186.18 190.005C186.18 189.405 186.393 188.892 186.817 188.467C187.257 188.028 187.777 187.808 188.377 187.808Z" fill="#2F3747"/>
</svg>
