<svg width="500" height="375" viewBox="0 0 500 375" fill="none" xmlns="http://www.w3.org/2000/svg">
<path d="M244.025 361.037L19.375 228.262C12.225 224.25 6.0875 217.65 13.0625 213.337L238.525 83.3374C241.913 81.2374 247.05 79.8624 250.487 81.8624L486.25 218.75C493.4 222.9 494.688 234.5 487.5 238.662L273.638 360.825C269.146 363.431 264.052 364.821 258.859 364.858C253.667 364.896 248.554 363.579 244.025 361.037Z" fill="#96C168"/>
<path style="mix-blend-mode:multiply" opacity="0.63" d="M358.662 312.425C378.662 300.362 398.562 289.587 418.762 277.987C398.912 264.575 388.875 260.15 373.675 250.762L259.112 316.325L302.087 344.6C321.012 334.737 340.375 323.487 358.662 312.425Z" fill="url(#paint0_linear_48_606)"/>
<path d="M109.475 225.587V230.512L111.975 233.575" fill="#ADCEE1"/>
<path d="M208.563 165.55L112.313 225.212C111.431 225.757 110.707 226.522 110.211 227.432C109.716 228.342 109.465 229.365 109.486 230.401C109.506 231.437 109.796 232.449 110.326 233.339C110.857 234.229 111.611 234.965 112.513 235.475L258.587 318.1C260.629 319.254 262.938 319.852 265.284 319.832C267.629 319.812 269.928 319.176 271.95 317.987L367.775 261.662C374.737 255.937 374.212 245.175 367.775 244.725L222.5 165.312C220.372 164.088 217.953 163.464 215.498 163.506C213.044 163.547 210.647 164.254 208.563 165.55Z" fill="#88D3D8"/>
<path d="M208.563 161.437L112.313 221.1C111.431 221.645 110.707 222.409 110.211 223.319C109.716 224.229 109.465 225.252 109.486 226.288C109.506 227.324 109.796 228.337 110.326 229.227C110.857 230.116 111.611 230.852 112.513 231.362L258.587 313.987C260.629 315.142 262.938 315.739 265.284 315.72C267.629 315.7 269.928 315.064 271.95 313.875L367.775 257.5C368.898 256.847 369.831 255.91 370.479 254.784C371.127 253.657 371.468 252.381 371.468 251.081C371.468 249.782 371.127 248.505 370.479 247.379C369.831 246.252 368.898 245.316 367.775 244.662L222.5 161.25C220.377 160.018 217.96 159.385 215.505 159.418C213.051 159.451 210.652 160.149 208.563 161.437Z" fill="white"/>
<path d="M212.5 153.287C212.5 153.287 252.5 24.2625 252.213 24.2625C251.925 24.2625 253.463 18.525 260.6 21.7625L414.013 112.075C414.013 112.075 421.513 115.087 420 122.075C418.488 129.062 380.925 248.325 380.925 248.325C380.139 249.458 379.013 250.311 377.709 250.761C376.405 251.21 374.992 251.233 373.675 250.825C369 249.375 216.075 160.55 216.075 160.55C216.075 160.55 210.988 158.587 212.5 153.287Z" fill="#053855"/>
<path d="M254.762 33.6375L411.862 125.225L379.275 234.625L220.162 145.762L254.762 33.6375Z" fill="#FFA197"/>
<path d="M202.65 175.112L167.5 197.037C166.878 197.427 166.367 197.971 166.018 198.616C165.668 199.261 165.492 199.986 165.506 200.72C165.519 201.454 165.723 202.172 166.097 202.803C166.47 203.435 167.001 203.959 167.638 204.325L293.963 276.337C295.85 277.426 297.99 277.998 300.169 277.998C302.347 277.998 304.488 277.426 306.375 276.337C314.5 271.6 328.475 263.075 337.038 257.837C337.802 257.371 338.432 256.715 338.866 255.932C339.299 255.149 339.522 254.266 339.512 253.371C339.502 252.476 339.259 251.599 338.808 250.826C338.357 250.053 337.712 249.411 336.938 248.962C311.35 234.062 228 185.587 209.75 175C208.668 174.371 207.436 174.049 206.184 174.068C204.933 174.088 203.711 174.449 202.65 175.112Z" fill="#69B97E"/>
<path d="M204.538 234.625L248.675 259.438C249.351 259.819 249.914 260.371 250.308 261.04C250.702 261.708 250.913 262.469 250.919 263.244C250.925 264.02 250.727 264.784 250.344 265.459C249.961 266.134 249.407 266.695 248.738 267.088L222.788 282.275C221.896 282.79 220.885 283.06 219.856 283.06C218.827 283.06 217.816 282.79 216.925 282.275L171.763 256.525C171.214 256.19 170.761 255.72 170.447 255.16C170.133 254.599 169.968 253.968 169.968 253.325C169.968 252.683 170.133 252.051 170.447 251.491C170.761 250.93 171.214 250.46 171.763 250.125L198.75 234.65C199.63 234.146 200.626 233.878 201.64 233.874C202.655 233.869 203.653 234.128 204.538 234.625Z" fill="#69B97E"/>
<path opacity="0.1" d="M202.65 175.112L167.5 197.037C166.878 197.427 166.367 197.971 166.018 198.616C165.668 199.261 165.492 199.986 165.506 200.72C165.519 201.454 165.723 202.172 166.097 202.803C166.47 203.435 167.001 203.959 167.638 204.325L293.963 276.337C295.85 277.426 297.99 277.998 300.169 277.998C302.347 277.998 304.488 277.426 306.375 276.337C314.5 271.6 328.475 263.075 337.038 257.837C337.802 257.371 338.432 256.715 338.866 255.932C339.299 255.149 339.522 254.266 339.512 253.371C339.502 252.476 339.259 251.599 338.808 250.826C338.357 250.053 337.712 249.411 336.938 248.962C311.35 234.062 228 185.587 209.75 175C208.668 174.371 207.436 174.049 206.184 174.068C204.933 174.088 203.711 174.449 202.65 175.112Z" fill="#053855"/>
<path opacity="0.1" d="M204.538 234.625L248.675 259.438C249.351 259.819 249.914 260.371 250.308 261.04C250.702 261.708 250.913 262.469 250.919 263.244C250.925 264.02 250.727 264.784 250.344 265.459C249.961 266.134 249.407 266.695 248.738 267.088L222.788 282.275C221.896 282.79 220.885 283.06 219.856 283.06C218.827 283.06 217.816 282.79 216.925 282.275L171.763 256.525C171.214 256.19 170.761 255.72 170.447 255.16C170.133 254.599 169.968 253.968 169.968 253.325C169.968 252.683 170.133 252.051 170.447 251.491C170.761 250.93 171.214 250.46 171.763 250.125L198.75 234.65C199.63 234.146 200.626 233.878 201.64 233.874C202.655 233.869 203.653 234.128 204.538 234.625Z" fill="#053855"/>
<path d="M221.063 110.675C221.063 110.675 203.225 110.075 208.25 88.75C206.6 92.85 203.25 98.025 196.875 98.2375C190.5 98.45 186.75 93.2375 184.788 88.95C186.413 94.1625 188.05 101.762 184.788 104.1C179.663 107.762 171.963 108.862 171.963 108.862C171.963 108.862 185.713 109 185.813 114.362C185.913 119.725 183.138 126.1 183.138 126.1C183.138 126.1 199.45 114.338 206.588 127.738C206.588 127.725 203.5 112.5 221.063 110.675Z" fill="#FFC543"/>
<path d="M205.225 108.225C205.225 108.225 100 133.375 101.25 185.4C102.5 237.425 146.888 229.037 146.888 229.037C146.888 229.037 98.4501 232.937 90.3751 197.787C82.3001 162.637 129.7 112.262 205.225 108.225Z" fill="#FAD374"/>
<g opacity="0.5">
<path d="M359.775 131.175L276.025 81.9999C267.275 76.8249 261.825 92.3499 271.575 97.7499C301.237 115.187 330.225 131.9 359.725 149.15L359.775 131.175Z" fill="white"/>
</g>
<path d="M378.125 141.963L359.775 131.175L354.238 145.925L372.788 156.788C381.588 161.95 386.925 147.125 378.125 141.963Z" fill="white"/>
<path d="M368.75 150.15C366.838 150.15 364.888 148.462 364.1 145.962C363.188 143.05 364.2 140.125 366.375 139.45C368.55 138.775 371.05 140.587 371.963 143.5C372.374 144.802 372.374 146.198 371.963 147.5C371.805 148.075 371.51 148.603 371.103 149.039C370.695 149.474 370.188 149.804 369.625 150C369.342 150.091 369.047 150.141 368.75 150.15ZM367.313 140.562C367.122 140.563 366.932 140.592 366.75 140.65C365.237 141.125 364.587 143.337 365.3 145.65C366.012 147.962 367.8 149.4 369.313 148.875C369.683 148.73 370.013 148.499 370.276 148.202C370.539 147.904 370.727 147.547 370.825 147.162C371.137 146.102 371.115 144.972 370.762 143.925C370.2 141.937 368.75 140.562 367.363 140.562H367.313Z" fill="#053855"/>
<path d="M371.148 148.195L370.243 149.057L375.027 154.081L375.932 153.219L371.148 148.195Z" fill="#053855"/>
<path opacity="0.53" d="M245.187 99.2249L234.412 134.15L258.962 147.675L270.512 113.987L245.187 99.2249Z" fill="white"/>
<path opacity="0.53" d="M278.45 118.825L267.662 153.737L292.225 167.262L303.775 133.575L278.45 118.825Z" fill="white"/>
<path opacity="0.53" d="M314 139.287L303.225 174.212L327.775 187.737L339.325 154.05L314 139.287Z" fill="white"/>
<path d="M212.5 206.087C212.5 206.087 169.725 208.75 141.6 249C141.6 249 171.925 271.375 233.787 254.65" fill="#EB773A"/>
<path d="M209.588 211.5C209.588 211.5 188.888 218 180.5 225.45C172.113 232.9 160.5 244.037 160.5 244.037C160.5 244.037 185.388 257.988 216.513 254.125C247.638 250.263 237.113 211.925 209.588 211.5Z" fill="#FFAE46"/>
<path d="M226.25 213.5C224.675 214.587 205.65 216.237 197.225 227.25L203.862 225.75C203.862 225.75 190.112 233.7 183.475 238.838C183.475 238.838 207.675 240 206.812 240.187L199.025 241.938C199.025 241.938 214.75 248.687 229.637 244.025C244.525 239.362 237.5 216.25 237.5 216.25L226.25 213.5Z" fill="#FAD374"/>
<path d="M272.05 234.175C272.05 234.175 261.488 250.312 253.788 252.025C246.088 253.737 221.113 259.387 221.113 259.387L219.863 253.912C219.863 253.912 243.063 236.9 249.863 227.85C256.663 218.8 272.05 234.175 272.05 234.175Z" fill="#69B97E"/>
<path opacity="0.61" d="M272.05 234.175C272.05 234.175 261.488 250.312 253.788 252.025C246.088 253.737 221.113 259.387 221.113 259.387L219.863 253.912C219.863 253.912 243.063 236.9 249.863 227.85C256.663 218.8 272.05 234.175 272.05 234.175Z" fill="#363636"/>
<path d="M264.663 201.337C264.663 201.337 248.2 191.337 240.513 193.037C232.825 194.737 207.838 200.4 207.838 200.4L209.088 205.875C209.088 205.875 237.35 211.3 247.413 216.537C257.475 221.775 264.663 201.337 264.663 201.337Z" fill="#69B97E"/>
<path opacity="0.61" d="M264.663 201.337C264.663 201.337 248.2 191.337 240.513 193.037C232.825 194.737 207.838 200.4 207.838 200.4L209.088 205.875C209.088 205.875 237.35 211.3 247.413 216.537C257.475 221.775 264.663 201.337 264.663 201.337Z" fill="#363636"/>
<path d="M361.613 210.25C369.494 205.144 376.73 199.105 383.163 192.262C383.163 192.262 372.988 187.775 355.8 185.387C353.488 193.675 356.85 202.637 361.613 210.25Z" fill="#69B97E"/>
<path d="M306.784 223.063C313.25 221.606 317.148 214.468 315.493 207.121C313.837 199.773 307.253 194.998 300.788 196.455C294.323 197.912 290.424 205.05 292.08 212.397C293.736 219.745 300.319 224.52 306.784 223.063Z" fill="#69B97E"/>
<path d="M430.9 181.137C430.9 181.137 324.762 161.487 244.375 209.662C244.375 209.662 227.425 216.6 229.9 225.912C232.375 235.225 253.087 238.112 253.087 238.112C253.087 238.112 321.087 248.362 430.9 181.137Z" fill="#69B97E"/>
<path d="M244.387 209.663C244.387 209.663 233.038 202.738 227.75 203.938L205.25 209.013L206.1 212.763C206.1 212.763 225.575 216.513 232.5 220.113C239.425 223.713 244.387 209.663 244.387 209.663Z" fill="#69B97E"/>
<path d="M250.175 235.35C250.175 235.35 242.888 246.475 237.588 247.65L215.088 252.725L214.238 248.975C214.238 248.975 230.225 237.25 234.938 231.013C239.65 224.775 250.175 235.35 250.175 235.35Z" fill="#69B97E"/>
<path opacity="0.29" d="M244.387 209.663C244.387 209.663 233.038 202.738 227.75 203.938L205.25 209.013L206.1 212.763C206.1 212.763 225.575 216.513 232.5 220.113C239.425 223.713 244.387 209.663 244.387 209.663Z" fill="#363636"/>
<path opacity="0.29" d="M250.175 235.35C250.175 235.35 242.888 246.475 237.588 247.65L215.088 252.725L214.238 248.975C214.238 248.975 230.225 237.25 234.938 231.013C239.65 224.775 250.175 235.35 250.175 235.35Z" fill="#363636"/>
<path d="M376.8 177.175C376.8 177.175 369.138 193.15 383.488 206.888L368.488 213.638C368.488 213.638 352.5 191.838 363.038 177.5L376.8 177.175Z" fill="#69B97E"/>
<path d="M298.575 186.7C298.575 186.7 286.35 214.087 308.287 233.45L283.487 237.775C283.487 237.775 260.462 215.862 276.6 193.887L298.575 186.7Z" fill="#69B97E"/>
<path d="M346.415 203.675C348.691 203.162 350.121 200.901 349.608 198.625C349.095 196.348 346.834 194.919 344.557 195.432C342.281 195.945 340.851 198.206 341.364 200.482C341.877 202.759 344.139 204.188 346.415 203.675Z" fill="#69B97E"/>
<path d="M323.703 215.77C329.643 214.432 333.373 208.531 332.034 202.591C330.696 196.651 324.795 192.921 318.855 194.26C312.915 195.598 309.185 201.499 310.524 207.439C311.862 213.379 317.763 217.109 323.703 215.77Z" fill="#69B97E"/>
<path opacity="0.61" d="M376.8 177.175C376.8 177.175 369.138 193.15 383.488 206.888L368.488 213.638C368.488 213.638 352.5 191.838 363.038 177.5L376.8 177.175Z" fill="#606060"/>
<path opacity="0.61" d="M298.575 186.7C298.575 186.7 286.35 214.087 308.287 233.45L283.487 237.775C283.487 237.775 260.462 215.862 276.6 193.887L298.575 186.7Z" fill="#606060"/>
<path opacity="0.61" d="M346.415 203.675C348.691 203.162 350.121 200.901 349.608 198.625C349.095 196.348 346.834 194.919 344.557 195.432C342.281 195.945 340.851 198.206 341.364 200.482C341.877 202.759 344.139 204.188 346.415 203.675Z" fill="#606060"/>
<path opacity="0.61" d="M323.703 215.77C329.643 214.432 333.373 208.531 332.034 202.591C330.696 196.651 324.795 192.921 318.855 194.26C312.915 195.598 309.185 201.499 310.524 207.439C311.862 213.379 317.763 217.109 323.703 215.77Z" fill="#606060"/>
<defs>
<linearGradient id="paint0_linear_48_606" x1="351.425" y1="324.987" x2="329.875" y2="276.95" gradientUnits="userSpaceOnUse">
<stop stop-color="white" stop-opacity="0"/>
<stop offset="1" stop-color="#297600"/>
</linearGradient>
</defs>
</svg>
