<svg xmlns="http://www.w3.org/2000/svg" width="100" height="100" viewBox="0 0 100 100" fill="none">
  <path d="M60.326 8.6001H20.958C17.4698 8.6001 14.642 11.4279 14.642 14.9161V84.8841C14.642 88.3723 17.4698 91.2001 20.958 91.2001H60.326C63.8143 91.2001 66.642 88.3723 66.642 84.8841V14.9161C66.642 11.4279 63.8143 8.6001 60.326 8.6001Z" fill="#24285B"/>
  <path d="M57.526 12.21H23.872C20.3838 12.21 17.556 15.0377 17.556 18.526V81.7C17.556 85.1882 20.3838 88.016 23.872 88.016H57.526C61.0143 88.016 63.842 85.1882 63.842 81.7V18.526C63.842 15.0377 61.0143 12.21 57.526 12.21Z" fill="#E2E2E2"/>
  <path d="M52.926 11.9419H23.774C20.2858 11.9419 17.458 14.7697 17.458 18.2579V79.6839C17.458 83.1721 20.2858 85.9999 23.774 85.9999H52.926C56.4142 85.9999 59.242 83.1721 59.242 79.6839V18.2579C59.242 14.7697 56.4142 11.9419 52.926 11.9419Z" fill="white"/>
  <path d="M27.242 10.6001H53.842V12.1221C53.842 15.0341 51.478 17.4001 48.564 17.4001H32.52C29.608 17.4001 27.242 15.0361 27.242 12.1221V10.6001Z" fill="#24285B"/>
  <path d="M23.47 28.1743H37.73" stroke="#24285B" stroke-width="7.88" stroke-linecap="round" stroke-linejoin="round"/>
  <path d="M23.47 39.0361H41.824" stroke="#24285B" stroke-width="7.88" stroke-linecap="round" stroke-linejoin="round"/>
  <path d="M23.47 49.9004H37.73" stroke="#24285B" stroke-width="7.88" stroke-linecap="round" stroke-linejoin="round"/>
  <path d="M23.47 60.7642H35.424" stroke="#24285B" stroke-width="7.88" stroke-linecap="round" stroke-linejoin="round"/>
  <path d="M23.47 71.6265H47.376" stroke="#24285B" stroke-width="7.88" stroke-linecap="round" stroke-linejoin="round"/>
  <path d="M49.41 41.8682V47.6842C49.41 48.3842 49.912 48.9822 50.602 49.1022L54.802 49.8362C55.288 49.9202 55.696 50.2482 55.884 50.7042L55.89 50.7182C56.078 51.1742 56.022 51.6942 55.738 52.0962L53.288 55.5842C52.886 56.1562 52.954 56.9362 53.448 57.4302L57.56 61.5422C58.054 62.0362 58.834 62.1042 59.406 61.7022L62.894 59.2522C63.298 58.9682 63.818 58.9122 64.272 59.1002L64.286 59.1062C64.742 59.2942 65.068 59.7022 65.154 60.1882L65.888 64.3882C66.008 65.0782 66.606 65.5802 67.306 65.5802H73.122C73.822 65.5802 74.42 65.0782 74.54 64.3882L75.274 60.1882C75.358 59.7022 75.686 59.2942 76.142 59.1062L76.156 59.1002C76.612 58.9122 77.132 58.9682 77.534 59.2522L81.022 61.7022C81.594 62.1042 82.374 62.0362 82.868 61.5422L86.98 57.4302C87.474 56.9362 87.542 56.1562 87.14 55.5842L84.69 52.0962C84.406 51.6922 84.35 51.1722 84.538 50.7182L84.544 50.7042C84.732 50.2482 85.14 49.9222 85.626 49.8362L89.826 49.1022C90.516 48.9822 91.018 48.3842 91.018 47.6842V41.8682C91.018 41.1682 90.516 40.5702 89.826 40.4502L85.626 39.7162C85.14 39.6322 84.732 39.3042 84.544 38.8482L84.538 38.8342C84.35 38.3782 84.406 37.8582 84.69 37.4562L87.14 33.9682C87.542 33.3962 87.474 32.6162 86.98 32.1222L82.868 28.0102C82.374 27.5162 81.594 27.4482 81.022 27.8502L77.534 30.3002C77.13 30.5842 76.61 30.6402 76.156 30.4522L76.142 30.4462C75.686 30.2582 75.36 29.8502 75.274 29.3642L74.54 25.1642C74.42 24.4742 73.822 23.9722 73.122 23.9722H67.306C66.606 23.9722 66.008 24.4742 65.888 25.1642L65.154 29.3642C65.07 29.8502 64.742 30.2582 64.286 30.4462L64.272 30.4522C63.816 30.6402 63.296 30.5842 62.894 30.3002L59.406 27.8502C58.834 27.4482 58.054 27.5162 57.56 28.0102L53.448 32.1222C52.954 32.6162 52.886 33.3962 53.288 33.9682L55.738 37.4562C56.022 37.8602 56.078 38.3802 55.89 38.8342L55.884 38.8482C55.696 39.3042 55.288 39.6302 54.802 39.7162L50.602 40.4502C49.912 40.5702 49.41 41.1682 49.41 41.8682ZM70.458 37.3802C74.332 37.5042 77.488 40.6602 77.612 44.5342C77.748 48.8122 74.252 52.3102 69.972 52.1742C66.096 52.0502 62.94 48.8942 62.818 45.0202C62.682 40.7422 66.178 37.2442 70.458 37.3802Z" fill="#0099F5"/>
  <path opacity="0.09" d="M69.226 65.5822H67.306C66.606 65.5822 66.008 65.0802 65.888 64.3902L65.154 60.1902C65.096 59.8582 64.922 59.5642 64.674 59.3502L64.812 59.2542C65.216 58.9702 65.736 58.9142 66.19 59.1022L66.204 59.1082C66.66 59.2962 66.986 59.7042 67.072 60.1902L67.806 64.3902C67.926 65.0802 68.524 65.5822 69.224 65.5822H69.226ZM71.174 37.4382C74.714 37.9022 77.494 40.9022 77.61 44.5342C77.734 48.4042 74.884 51.6342 71.172 52.1142C71.408 52.1442 71.648 52.1642 71.89 52.1722C76.168 52.3082 79.666 48.8122 79.53 44.5322C79.406 40.6582 76.25 37.5022 72.376 37.3782C71.968 37.3642 71.566 37.3862 71.174 37.4362V37.4382ZM79.454 59.2542C79.05 58.9702 78.53 58.9142 78.076 59.1022L78.062 59.1082C77.918 59.1682 77.788 59.2522 77.674 59.3502L81.024 61.7042C81.572 62.0882 82.306 62.0422 82.802 61.6062L79.454 59.2542ZM78.06 30.4442L78.074 30.4502C78.53 30.6382 79.05 30.5822 79.452 30.2982L82.8 27.9462C82.304 27.5082 81.568 27.4622 81.022 27.8482L77.672 30.2022C77.786 30.3002 77.916 30.3842 78.06 30.4442ZM50.598 49.1042L54.798 49.8382C55.284 49.9222 55.692 50.2502 55.88 50.7062L55.886 50.7202C56.074 51.1762 56.018 51.6962 55.734 52.0982L53.284 55.5862C52.882 56.1582 52.95 56.9382 53.444 57.4322L57.556 61.5442C58.05 62.0382 58.83 62.1062 59.402 61.7042L59.542 61.6062C59.52 61.5862 59.496 61.5662 59.474 61.5442L55.362 57.4322C54.868 56.9382 54.8 56.1582 55.202 55.5862L57.652 52.0982C57.936 51.6942 57.992 51.1742 57.804 50.7202L57.798 50.7062C57.61 50.2502 57.202 49.9242 56.716 49.8382L52.516 49.1042C51.826 48.9842 51.324 48.3862 51.324 47.6862V41.8702C51.324 41.1702 51.826 40.5722 52.516 40.4522L56.716 39.7182C57.202 39.6342 57.61 39.3062 57.798 38.8502L57.804 38.8362C57.992 38.3802 57.936 37.8602 57.652 37.4582L55.202 33.9702C54.8 33.3982 54.868 32.6182 55.362 32.1242L59.474 28.0122C59.496 27.9902 59.518 27.9702 59.542 27.9502L59.402 27.8522C58.83 27.4502 58.05 27.5182 57.556 28.0122L53.444 32.1242C52.95 32.6182 52.882 33.3982 53.284 33.9702L55.734 37.4582C56.018 37.8622 56.074 38.3822 55.886 38.8362L55.88 38.8502C55.692 39.3062 55.284 39.6322 54.798 39.7182L50.598 40.4522C49.908 40.5722 49.406 41.1702 49.406 41.8702V47.6862C49.406 48.3862 49.908 48.9842 50.598 49.1042ZM64.81 30.3002C65.214 30.5842 65.734 30.6402 66.188 30.4522L66.202 30.4462C66.658 30.2582 66.984 29.8502 67.07 29.3642L67.804 25.1642C67.924 24.4742 68.522 23.9722 69.222 23.9722H67.302C66.602 23.9722 66.004 24.4742 65.884 25.1642L65.15 29.3642C65.092 29.6962 64.918 29.9902 64.67 30.2042L64.808 30.3002H64.81Z" fill="black"/>
</svg>