<svg xmlns="http://www.w3.org/2000/svg" width="100" height="100" viewBox="0 0 100 100" fill="none">
  <path d="M90.068 12.0781H10.018C8.10266 12.0781 6.54999 13.6308 6.54999 15.5461V71.8721C6.54999 73.7874 8.10266 75.3401 10.018 75.3401H90.068C91.9833 75.3401 93.536 73.7874 93.536 71.8721V15.5461C93.536 13.6308 91.9833 12.0781 90.068 12.0781Z" fill="#E2E2E2"/>
  <path d="M8.13799 11.3599H91.948C92.3691 11.3599 92.7731 11.5272 93.0709 11.825C93.3687 12.1228 93.536 12.5267 93.536 12.9479V62.0419H6.54999V12.9479C6.54999 12.5267 6.71729 12.1228 7.0151 11.825C7.31291 11.5272 7.71682 11.3599 8.13799 11.3599Z" fill="#24285B"/>
  <path d="M50.136 70.5601C51.1147 70.5601 51.908 69.7668 51.908 68.7881C51.908 67.8095 51.1147 67.0161 50.136 67.0161C49.1574 67.0161 48.364 67.8095 48.364 68.7881C48.364 69.7668 49.1574 70.5601 50.136 70.5601Z" fill="#24285B"/>
  <path d="M51.2 70.1999C51.3325 69.8732 51.3644 69.5144 51.2917 69.1695C51.2189 68.8246 51.0448 68.5092 50.7918 68.2639C50.5387 68.0185 50.2181 67.8543 49.871 67.7923C49.524 67.7303 49.1664 67.7733 48.844 67.9159C48.722 67.969 48.6065 68.0361 48.5 68.1159C48.6028 67.8631 48.7627 67.6375 48.9671 67.4568C49.1715 67.276 49.415 67.1449 49.6784 67.0738C49.9419 67.0027 50.2182 66.9935 50.4858 67.0469C50.7534 67.1003 51.0051 67.2148 51.2211 67.3815C51.4371 67.5483 51.6117 67.7627 51.7311 68.008C51.8505 68.2534 51.9116 68.5231 51.9095 68.7959C51.9075 69.0688 51.8424 69.3375 51.7193 69.5811C51.5962 69.8246 51.4185 70.0364 51.2 70.1999Z" fill="#13183F"/>
  <path d="M61.186 75.3398H39.08L37.284 87.5618H62.984L61.186 75.3398Z" fill="#E2E2E2"/>
  <path d="M38.436 79.7158H61.83L61.186 75.3398H39.08L38.436 79.7158Z" fill="#C3C7C9"/>
  <path d="M64.652 87.2021H35.614C35.4439 87.2021 35.306 87.34 35.306 87.5101V88.3321C35.306 88.5023 35.4439 88.6401 35.614 88.6401H64.652C64.8221 88.6401 64.96 88.5023 64.96 88.3321V87.5101C64.96 87.34 64.8221 87.2021 64.652 87.2021Z" fill="#C3C7C9"/>
  <path d="M89.942 14.9541H9.966V58.6261H89.942V14.9541Z" fill="#F2F2F2"/>
  <path d="M55.162 45.4502H44.998C44.7749 45.4502 44.594 45.6311 44.594 45.8542V46.9962C44.594 47.2193 44.7749 47.4002 44.998 47.4002H55.162C55.3851 47.4002 55.566 47.2193 55.566 46.9962V45.8542C55.566 45.6311 55.3851 45.4502 55.162 45.4502Z" fill="#FFD44D"/>
  <path d="M54.434 47.3999H45.438L44.838 58.6159H55.234L54.434 47.3999Z" fill="#9C5631"/>
  <path d="M49.888 24.6259C48.978 27.0659 46.126 34.0559 41.84 38.4479C41.7886 38.4995 41.7553 38.5664 41.7452 38.6386C41.7351 38.7107 41.7487 38.7842 41.784 38.8479L45.326 45.4579H55.08L58.62 38.8479C58.6556 38.7843 58.6694 38.7107 58.6593 38.6385C58.6492 38.5663 58.6157 38.4993 58.564 38.4479C54.28 34.0479 51.428 27.0659 50.516 24.6259C50.4926 24.5614 50.4499 24.5057 50.3937 24.4663C50.3376 24.4269 50.2706 24.4058 50.202 24.4058C50.1334 24.4058 50.0664 24.4269 50.0103 24.4663C49.9541 24.5057 49.9114 24.5614 49.888 24.6259Z" fill="#FFBEB3"/>
  <path opacity="0.09" d="M58.566 38.4559C54.28 34.0559 51.428 27.0739 50.518 24.6319C50.4938 24.5683 50.4508 24.5135 50.3947 24.4749C50.3386 24.4362 50.2721 24.4155 50.204 24.4155C50.1359 24.4155 50.0694 24.4362 50.0133 24.4749C49.9573 24.5135 49.9143 24.5683 49.89 24.6319C49.668 25.2319 49.33 26.0919 48.89 27.1219C50.234 30.3079 52.728 35.4179 56.122 38.8979C56.172 38.9483 56.2045 39.0134 56.2146 39.0837C56.2247 39.1539 56.2119 39.2256 56.178 39.2879L52.638 45.4559H52.732C52.8381 45.4559 52.9398 45.4981 53.0149 45.5731C53.0899 45.6481 53.132 45.7499 53.132 45.8559L53.078 47.0219C53.078 47.128 53.0359 47.2298 52.9609 47.3048C52.8858 47.3798 52.7841 47.4219 52.678 47.4219H51.936L52.76 58.6399H55.238L54.438 47.4239H55.18C55.2861 47.4239 55.3878 47.3818 55.4629 47.3068C55.5379 47.2318 55.58 47.13 55.58 47.0239V45.8579C55.58 45.7519 55.5379 45.6501 55.4629 45.5751C55.3878 45.5001 55.2861 45.4579 55.18 45.4579H55.084L58.626 38.8459C58.6587 38.783 58.6706 38.7113 58.6598 38.6411C58.649 38.571 58.6161 38.5062 58.566 38.4559Z" fill="black"/>
  <path d="M50.188 35.8119C50.0614 35.8119 49.9399 35.7619 49.85 35.6727C49.7601 35.5836 49.7091 35.4625 49.708 35.3359L49.634 24.8639C49.6332 24.8008 49.6449 24.7381 49.6685 24.6796C49.692 24.621 49.7269 24.5677 49.7712 24.5227C49.8154 24.4777 49.8682 24.4419 49.9263 24.4174C49.9845 24.3929 50.0469 24.3801 50.11 24.3799C50.2365 24.3809 50.3576 24.4312 50.4476 24.5201C50.5376 24.6089 50.5894 24.7294 50.592 24.8559L50.666 35.3299C50.6665 35.3928 50.6546 35.4552 50.631 35.5136C50.6073 35.5719 50.5724 35.625 50.5281 35.6698C50.4839 35.7145 50.4313 35.7502 50.3732 35.7745C50.3152 35.7989 50.253 35.8116 50.19 35.8119H50.188Z" fill="#24285B"/>
  <path d="M50.074 37.858C51.0129 37.858 51.774 37.0969 51.774 36.158C51.774 35.2191 51.0129 34.458 50.074 34.458C49.1351 34.458 48.374 35.2191 48.374 36.158C48.374 37.0969 49.1351 37.858 50.074 37.858Z" fill="#F0457D"/>
  <path d="M49.8 24.6C49.7367 24.5366 49.6905 24.4583 49.6656 24.3722C49.6408 24.2862 49.6382 24.1953 49.658 24.108C49.878 23.2435 50.2403 22.4216 50.73 21.676C51.81 20.076 53.29 19.43 55.01 19.82C58.67 20.652 59.268 20.374 60.06 18.922C60.1266 18.7973 60.2399 18.7042 60.3751 18.6631C60.5103 18.6221 60.6563 18.6364 60.781 18.703C60.9056 18.7695 60.9987 18.8829 61.0398 19.0181C61.0809 19.1533 61.0666 19.2993 61 19.424C59.816 21.596 58.478 21.682 54.79 20.844C53.512 20.554 52.446 21.03 51.618 22.26C51.201 22.8988 50.8909 23.6014 50.7 24.34C50.6851 24.4077 50.6569 24.4718 50.6172 24.5286C50.5774 24.5855 50.5268 24.6339 50.4682 24.671C50.4097 24.7082 50.3443 24.7334 50.276 24.7453C50.2076 24.7571 50.1376 24.7553 50.07 24.74C49.9687 24.7194 49.8752 24.6709 49.8 24.6Z" fill="#0099F5"/>
</svg>