<svg width="645" height="525" viewBox="0 0 645 525" fill="none" xmlns="http://www.w3.org/2000/svg">
<path d="M91.545 138.705L74.5 211.085L131.9 178.325" fill="#B59659"/>
<path d="M556.975 348.967L348.305 473.252L190.857 386.732L84.16 325.675L289.172 207.305" fill="#C9C9C9"/>
<path d="M556.975 348.967L347.78 468.3L201.935 385.805L91.545 138.705L296.855 15.8025L393.455 254.677L556.975 348.967Z" fill="#FFF3D9"/>
<path d="M537.9 346.203L345.802 455.77L211.875 380.013L109.062 143.098L292.025 37.4675L387.732 259.613L537.9 346.203Z" fill="#69B97E"/>
<path opacity="0.1" d="M292.025 37.4675L387.733 259.613L211.875 380.013L109.062 143.098L292.025 37.4675Z" fill="black"/>
<path d="M118.04 135.03L210.02 158.813L252.545 253.908L400.892 363.195L411.812 418.11L433.11 405.965L417.78 352.205L264.287 247.433L220.222 146.563L137.027 126.945" fill="#F9EFD7"/>
<path d="M291.43 282.1L270.762 343.333H185.17L193.483 350.998H275.698L298.483 286.65" fill="#F9EFD7"/>
<path d="M226.137 176.12L289.873 25.0425L265.373 39.6725L215.182 158.672C219.627 163.397 221.325 171.797 226.137 176.12Z" fill="#F9EFD7"/>
<path d="M459.028 299.478L397.078 340.288L389.29 332.78L451.975 294.508" fill="#F9EFD7"/>
<path d="M506.015 363.195C506.557 364.07 430.765 318.063 430.765 318.063L366.382 274.208L378.632 235.883L380.662 242.008L371.23 270.935L511.002 361.55" fill="#F9EFD7"/>
<path d="M478.365 334.407C485.285 334.407 490.895 331.838 490.895 328.667C490.895 325.497 485.285 322.927 478.365 322.927C471.445 322.927 465.835 325.497 465.835 328.667C465.835 331.838 471.445 334.407 478.365 334.407Z" fill="#B3B3B3"/>
<path d="M400.893 363.195C400.893 363.195 321.845 348.653 300.652 383.023C279.46 417.393 294.405 426.773 294.405 426.773L281 419.09C281 419.09 280.282 378.263 319.71 361.533C359.137 344.803 393.403 354.533 393.403 354.533" fill="#F9EFD7"/>
<path opacity="0.28" d="M376.515 412.282C375.185 411.617 340.92 399.49 340.92 399.49L336.65 406.49L362.76 425.967L376.515 412.282Z" fill="url(#paint0_linear_48_537)"/>
<path d="M344.823 417.323C344.823 418.637 345.888 419.703 347.203 419.703C348.517 419.703 349.583 418.637 349.583 417.323V390.513C349.583 389.198 348.517 388.133 347.203 388.133C345.888 388.133 344.823 389.198 344.823 390.513V417.323Z" fill="#BC532A"/>
<path d="M335.46 394.608C336.562 389.848 341.445 368.848 350.09 375.025C354.517 378.193 355.777 383.128 357.545 387.958C359.153 391.946 360.082 396.175 360.292 400.47C360.432 409.22 351.542 410.27 344.752 410.235C340.832 410.235 335.232 407.907 334.252 403.637C333.692 401.065 334.637 398.038 335.197 395.535L335.46 394.608Z" fill="#2C9135"/>
<path d="M335.04 395.5L335.25 394.572C336.23 390.355 340.15 373.45 347.027 373.87C344.98 382.777 341.97 392.193 343.527 401.31C344.053 404.467 345.299 407.461 347.168 410.06C346.258 410.06 345.418 410.06 344.49 410.06C340.57 410.06 334.97 407.733 333.99 403.463C333.5 401.065 334.498 398.037 335.04 395.5Z" fill="#156819"/>
<path d="M333.658 433.142C333.658 434.061 334.402 434.805 335.32 434.805C336.238 434.805 336.983 434.061 336.983 433.142V414.452C336.983 413.534 336.238 412.79 335.32 412.79C334.402 412.79 333.658 413.534 333.658 414.452V433.142Z" fill="#BC532A"/>
<path d="M327.113 417.288C327.883 413.963 331.277 399.333 337.315 403.638C340.395 405.843 341.27 409.29 342.565 412.65C343.692 415.438 344.343 418.396 344.49 421.4C344.595 427.49 338.4 428.243 333.657 428.208C330.927 428.208 327.025 426.58 326.377 423.623C326.211 421.714 326.431 419.791 327.025 417.97L327.113 417.288Z" fill="#2C9135"/>
<path d="M326.833 417.935L326.973 417.288C327.655 414.348 330.473 402.57 335.18 402.85C333.763 409.063 331.68 415.625 332.783 421.978C333.14 424.2 334.009 426.308 335.32 428.138C334.69 428.138 334.06 428.138 333.448 428.138C330.718 428.138 326.815 426.51 326.168 423.553C326.011 421.654 326.237 419.744 326.833 417.935Z" fill="#156819"/>
<path d="M361.01 432.513C361.01 433.769 362.029 434.788 363.285 434.788C364.541 434.788 365.56 433.769 365.56 432.513V406.875C365.56 405.619 364.541 404.6 363.285 404.6C362.029 404.6 361.01 405.619 361.01 406.875V432.513Z" fill="#BC532A"/>
<path d="M352.033 410.777C353.083 406.227 357.738 386.155 366.033 392.052C370.268 395.08 371.458 399.805 373.155 404.425C374.692 408.234 375.579 412.275 375.78 416.377C375.92 424.725 367.415 425.757 360.923 425.722C357.178 425.722 351.823 423.5 350.948 419.422C350.423 416.972 351.315 414.067 351.84 411.67L352.033 410.777Z" fill="#2C9135"/>
<path d="M351.63 411.67L351.823 410.777C352.75 406.752 356.513 390.582 363.075 390.985C361.115 399.507 358.245 408.485 359.785 417.235C360.283 420.28 361.481 423.167 363.285 425.67C362.41 425.67 361.535 425.67 360.713 425.67C356.968 425.67 351.613 423.447 350.738 419.37C350.213 416.972 351.105 414.067 351.63 411.67Z" fill="#156819"/>
<path opacity="0.28" d="M235.868 329.472C245.3 332.972 259.003 337.942 259.545 338.222L246.245 346.797L230.95 335.457C233.001 333.84 234.679 331.798 235.868 329.472Z" fill="url(#paint1_linear_48_537)"/>
<path d="M231.142 336L230.967 335.808V275.433H238.877V336C237.747 336.802 236.396 337.232 235.01 337.232C233.624 337.232 232.273 336.802 231.142 336Z" fill="#D3894C"/>
<path d="M234.922 296.117L247.977 304.062L252.545 301.42L250.672 295.54L238.02 288.172L234.922 296.117Z" fill="#D3894C"/>
<path d="M238.02 289.677L249.5 296.52L251.548 301.998L247.978 304.062L238.23 298.13L238.02 289.677Z" fill="#C66B28"/>
<path d="M234.065 282.905L223.163 277.147L218.175 280.245L223.163 285.407L230.74 287.105" fill="#D3894C"/>
<path d="M231.142 336L230.967 335.808V275.433H234.467V337.173C233.274 337.088 232.125 336.683 231.142 336Z" fill="#C66B28"/>
<path d="M234.502 285.057L220.905 278.25L218.175 280.245L219.225 284.375L232.438 291.848" fill="#C66B28"/>
<path d="M234.922 277.427C237.107 277.427 238.877 276.534 238.877 275.432C238.877 274.331 237.107 273.438 234.922 273.438C232.738 273.438 230.967 274.331 230.967 275.432C230.967 276.534 232.738 277.427 234.922 277.427Z" fill="#EAA068"/>
<path opacity="0.28" d="M512.262 338.223C511.422 337.803 479.8 326.27 479.8 326.27L476.3 329.963L499.05 346.798L512.262 338.223Z" fill="url(#paint2_linear_48_537)"/>
<path d="M476.073 329.787L475.968 329.595V269.22H480.745V329.717C480.49 330.1 480.146 330.416 479.742 330.636C479.338 330.856 478.887 330.975 478.427 330.982C477.967 330.989 477.513 330.884 477.102 330.675C476.692 330.467 476.339 330.163 476.073 329.787Z" fill="#E6E6E6"/>
<path d="M476.073 329.787L475.968 329.595V269.22H478.103V330.96C477.302 330.84 476.577 330.421 476.073 329.787Z" fill="#B3B3B3"/>
<path d="M478.365 271.215C479.689 271.215 480.763 270.322 480.763 269.22C480.763 268.118 479.689 267.225 478.365 267.225C477.041 267.225 475.968 268.118 475.968 269.22C475.968 270.322 477.041 271.215 478.365 271.215Z" fill="#DDDAA5"/>
<path d="M481.662 286.245C489.132 284.486 493.564 276.166 491.561 267.661C489.559 259.157 481.88 253.688 474.41 255.447C466.94 257.206 462.508 265.526 464.511 274.031C466.514 282.536 474.192 288.004 481.662 286.245Z" fill="#CA4050"/>
<path d="M480.598 283.767C486.779 282.311 490.448 275.435 488.793 268.407C487.138 261.38 480.786 256.862 474.605 258.318C468.424 259.773 464.755 266.65 466.41 273.678C468.065 280.705 474.417 285.222 480.598 283.767Z" fill="white"/>
<path d="M471.085 259L484.735 281.75C484.735 281.75 482.617 287.35 481.567 284.882C480.517 282.415 467.76 261.397 467.76 261.397L471.085 259Z" fill="#CA4050"/>
<path opacity="0.28" d="M427.423 294.508C436.855 298.008 450.558 302.978 451.1 303.258L439.06 311.028L424.675 298.463C426.74 296.835 426.25 296.835 427.423 294.508Z" fill="url(#paint3_linear_48_537)"/>
<path opacity="0.28" d="M402.065 312.917C411.498 316.417 425.2 321.387 425.743 321.667L413.703 329.437L399.318 316.872C401.383 315.245 400.893 315.245 402.065 312.917Z" fill="url(#paint4_linear_48_537)"/>
<path opacity="0.28" d="M404.445 282.012C413.878 285.512 427.58 290.482 428.123 290.762L416.083 298.532L401.75 285.95C403.763 284.34 403.255 284.34 404.445 282.012Z" fill="url(#paint5_linear_48_537)"/>
<path d="M401.225 318.045H401.243C402.76 318.045 403.99 316.815 403.99 315.297V305.077C403.99 303.56 402.76 302.33 401.243 302.33H401.225C399.708 302.33 398.478 303.56 398.478 305.077V315.297C398.478 316.815 399.708 318.045 401.225 318.045Z" fill="#BC532A"/>
<path d="M401.242 312.918C407.08 312.918 411.812 308.185 411.812 302.348C411.812 296.51 407.08 291.778 401.242 291.778C395.405 291.778 390.672 296.51 390.672 302.348C390.672 308.185 395.405 312.918 401.242 312.918Z" fill="#9CD861"/>
<path d="M401.243 291.76C401.829 291.764 402.415 291.817 402.993 291.918C400.864 293.119 399.139 294.923 398.033 297.103C396.928 299.283 396.492 301.741 396.78 304.168C397.028 306.051 397.782 307.832 398.963 309.32C400.143 310.809 401.705 311.949 403.483 312.62C400.709 312.919 397.931 312.105 395.758 310.356C393.586 308.606 392.197 306.066 391.898 303.293C391.598 300.519 392.413 297.741 394.162 295.568C395.911 293.396 398.452 292.007 401.225 291.708L401.243 291.76Z" fill="#54BA56"/>
<path d="M427.983 300.09H428.315C430.122 300.09 431.588 298.625 431.588 296.818V283.728C431.588 281.92 430.122 280.455 428.315 280.455H427.983C426.175 280.455 424.71 281.92 424.71 283.728V296.818C424.71 298.625 426.175 300.09 427.983 300.09Z" fill="#BC532A"/>
<path d="M428.14 293.668C435.447 293.668 441.37 287.744 441.37 280.438C441.37 273.131 435.447 267.208 428.14 267.208C420.833 267.208 414.91 273.131 414.91 280.438C414.91 287.744 420.833 293.668 428.14 293.668Z" fill="#9CD861"/>
<path d="M428.14 267.225C428.885 267.227 429.628 267.291 430.363 267.417C427.689 268.923 425.524 271.189 424.14 273.928C422.757 276.667 422.218 279.755 422.593 282.8C422.907 285.145 423.853 287.362 425.329 289.211C426.806 291.06 428.757 292.474 430.975 293.3C429.158 293.704 427.276 293.719 425.453 293.346C423.629 292.973 421.905 292.219 420.393 291.134C418.88 290.049 417.614 288.657 416.677 287.049C415.739 285.441 415.151 283.653 414.952 281.802C414.752 279.952 414.946 278.08 415.519 276.309C416.093 274.538 417.033 272.908 418.28 271.526C419.526 270.143 421.05 269.04 422.752 268.286C424.454 267.533 426.296 267.148 428.158 267.155L428.14 267.225Z" fill="#54BA56"/>
<path d="M403.482 286.615H403.5C405.017 286.615 406.247 285.385 406.247 283.867V273.647C406.247 272.13 405.017 270.9 403.5 270.9H403.482C401.965 270.9 400.735 272.13 400.735 273.647V283.867C400.735 285.385 401.965 286.615 403.482 286.615Z" fill="#BC532A"/>
<path d="M403.5 281.487C409.338 281.487 414.07 276.755 414.07 270.917C414.07 265.08 409.338 260.347 403.5 260.347C397.662 260.347 392.93 265.08 392.93 270.917C392.93 276.755 397.662 281.487 403.5 281.487Z" fill="#9CD861"/>
<path d="M403.5 260.33C404.087 260.334 404.672 260.387 405.25 260.488C403.122 261.689 401.396 263.493 400.291 265.673C399.185 267.853 398.749 270.311 399.038 272.738C399.286 274.621 400.04 276.402 401.22 277.89C402.401 279.379 403.963 280.519 405.74 281.19C404.339 281.403 402.908 281.33 401.536 280.975C400.164 280.62 398.877 279.991 397.754 279.126C396.632 278.261 395.696 277.177 395.003 275.941C394.31 274.704 393.875 273.34 393.724 271.93C393.572 270.521 393.708 269.095 394.122 267.74C394.537 266.384 395.221 265.126 396.135 264.042C397.048 262.959 398.172 262.071 399.438 261.433C400.703 260.795 402.085 260.42 403.5 260.33Z" fill="#54BA56"/>
<path d="M147.283 231.175L226.348 190.4L349.495 170.887L352.698 178.307L229.13 198.222L150.748 239.155" fill="#F9EFD7"/>
<path opacity="0.48" d="M344.385 351.155L303.995 337.19L209.635 391.632L274.088 428.592L344.385 351.155Z" fill="url(#paint6_linear_48_537)"/>
<path d="M344.595 321.545C345.102 323.61 344.315 351.05 343.212 356.265C342.11 361.48 334.077 360.675 331.68 360.08C329.282 359.485 324.855 356.475 321.845 355.862C318.835 355.25 302.595 349.335 303.785 344.96C304.975 340.585 308.597 336.787 312.412 337.19C316.227 337.592 326.412 339.92 326.412 339.92L329.387 315.42" fill="#063507"/>
<path d="M286.653 117.618C286.833 117.168 286.856 116.669 286.716 116.205C286.576 115.74 286.282 115.338 285.882 115.063C282.908 112.966 280.157 110.567 277.675 107.905C277.634 107.363 277.634 106.819 277.675 106.278C278.043 102.043 278.498 97.8075 278.9 93.5725C279.058 91.9275 277.535 91.315 276.293 91.7L276.398 89.0575C276.402 88.6838 276.302 88.3162 276.109 87.9961C275.915 87.6761 275.637 87.416 275.305 87.2453C274.972 87.0745 274.599 86.9997 274.226 87.0292C273.853 87.0587 273.496 87.1915 273.195 87.4125C273.195 86.8 273.195 86.1875 273.3 85.575C273.475 82.8975 269.31 82.8975 269.135 85.575C268.908 88.8825 268.75 92.2075 268.593 95.515C268.488 93.03 268.383 90.5275 268.348 88.0425C268.348 87.4902 268.128 86.9605 267.738 86.57C267.347 86.1794 266.817 85.96 266.265 85.96C265.713 85.96 265.183 86.1794 264.792 86.57C264.402 86.9605 264.183 87.4902 264.183 88.0425C264.183 94.36 264.603 100.643 265.145 106.943C263.78 104.475 263.92 101.885 263.553 99.015C263.185 96.145 259.02 96.355 259.387 99.015C259.912 102.97 259.633 106.435 262.048 109.848C263.35 111.641 264.846 113.284 266.51 114.748C266.597 114.92 266.709 115.079 266.843 115.22C270.51 118.667 274.507 121.744 278.778 124.408C280.615 125.563 282.277 123.445 281.7 121.835C281.787 121.617 281.841 121.387 281.858 121.153C281.933 121.076 282.003 120.994 282.068 120.908C282.556 120.825 283.005 120.586 283.345 120.225L283.73 120.558C285.725 122.255 288.683 119.35 286.653 117.618Z" fill="#F7931E"/>
<path d="M331.75 123.672C322.458 122.062 311.8 120.085 308.318 118.825C301.703 116.462 281.158 101.325 281.158 101.325C281.158 101.325 270.028 113.365 269.975 121.047C269.923 128.73 302.858 147 312.378 148.505C315.878 149.047 322.195 150.78 329.09 152.582C330.908 143.054 331.799 133.372 331.75 123.672Z" fill="#7DB53C"/>
<path d="M342.46 195.667C344.955 207.889 346.482 220.288 347.027 232.75C347.29 245.63 351.228 341.6 351.228 341.6C351.228 341.6 340.36 348.04 319.728 342.037C316.735 341.162 312.938 253.155 312.938 253.155L319.938 207.742" fill="#C66B28"/>
<path d="M251.74 174.86C251.805 174.614 251.815 174.356 251.77 174.105C251.724 173.855 251.625 173.617 251.478 173.408C251.332 173.2 251.141 173.026 250.92 172.899C250.7 172.772 250.454 172.695 250.2 172.672L241.975 171.5C240.12 170.292 238.055 168.997 236.183 167.51C235.991 164.872 235.945 162.226 236.042 159.582C236.165 156.73 231.738 156.747 231.615 159.582C231.615 160.51 231.615 161.437 231.615 162.365C230.373 159.582 230.25 155.68 229.725 152.897C229.288 150.64 226.452 151.007 225.647 152.705C225.472 151.865 225.263 150.955 225.088 150.185C224.528 147.402 220.258 148.575 220.818 151.357C221.01 152.355 221.255 153.352 221.465 154.332C221.107 154.058 220.675 153.9 220.224 153.879C219.774 153.858 219.328 153.976 218.947 154.216C218.566 154.456 218.267 154.807 218.092 155.223C217.916 155.638 217.872 156.096 217.965 156.537C218.332 157.815 218.753 159.075 219.225 160.3C217.685 159.827 215.725 160.93 216.407 162.855C218.157 167.93 219.803 174.405 224.37 177.73C230.145 181.912 238.213 182.717 245.055 183.68C245.422 183.723 245.795 183.684 246.145 183.565C246.496 183.446 246.815 183.25 247.08 182.991C247.345 182.733 247.549 182.419 247.677 182.072C247.805 181.725 247.854 181.353 247.82 180.985L248.905 181.195C251.338 181.562 252.563 178.342 250.935 177.257C251.27 176.965 251.521 176.589 251.663 176.168C251.804 175.746 251.831 175.295 251.74 174.86Z" fill="#F7931E"/>
<path d="M305.902 146.702C305.902 146.702 276.59 161.28 269.835 163.17C263.08 165.06 237.582 164.622 237.582 164.622C237.582 164.622 235.448 180.88 239.858 187.18C244.267 193.48 281.665 189.28 290.327 185.01C298.99 180.74 332.048 170.607 330.472 165.882C328.897 161.157 305.902 146.702 305.902 146.702Z" fill="#9CD861"/>
<path d="M300.25 361.567C300.757 363.632 299.97 391.072 298.868 396.287C297.765 401.502 289.732 400.697 287.335 400.102C284.937 399.507 280.51 396.497 277.5 395.885C274.49 395.272 258.25 389.357 259.44 384.982C260.63 380.607 264.253 376.81 268.068 377.212C271.883 377.615 282.068 379.942 282.068 379.942L285.042 355.442" fill="#063507"/>
<path d="M302 204.925C302 204.925 288.84 253.505 283.468 297.01C282.173 307.51 271.375 369.705 271.375 369.705C271.375 369.705 289.173 376.215 305.01 371.123C305.01 371.123 323.84 291.673 324.645 290.133C325.45 288.593 328.39 240.87 329.895 203.945" fill="#C66B28"/>
<path d="M330.297 136.85L322.475 135.1C320.585 135.485 304.38 143.29 298.202 155.558C297.587 159.219 297.248 162.922 297.187 166.635C296.855 171.605 296.645 176.575 296.715 181.545C296.723 186.964 297.139 192.375 297.957 197.733C298.342 200.025 298.552 201.233 299.095 203.42C300.036 204.146 301.096 204.702 302.228 205.065C325.765 211.645 341.865 197.663 342.478 195.755C343.09 193.848 342.477 167.213 342.11 151.375C342.037 147.985 340.836 144.716 338.697 142.085C336.557 139.455 333.602 137.612 330.297 136.85Z" fill="#9CD861"/>
<path d="M308.283 110.722C308.283 110.722 304.695 137.06 314.46 139.282C324.225 141.505 334.848 129.972 335.338 124.565C335.828 119.157 321.25 101.22 308.283 110.722Z" fill="#F7931E"/>
<path d="M342.25 115.5C341.999 111.435 340.742 107.497 338.593 104.038C335.618 98.6126 329.212 96.7576 323.595 95.6726C321.193 95.2029 318.708 95.4151 316.42 96.2851C315.389 95.125 313.947 94.4109 312.4 94.2933C310.852 94.1758 309.319 94.664 308.125 95.6551C307.465 96.3382 307.023 97.2019 306.855 98.1366C306.687 99.0712 306.8 100.035 307.18 100.905C306.028 101.001 304.948 101.501 304.131 102.318C303.314 103.136 302.813 104.216 302.718 105.368C302.427 106.645 302.501 107.978 302.931 109.216C303.361 110.453 304.13 111.545 305.15 112.368C304.427 113.115 304.004 114.102 303.962 115.142C303.92 116.181 304.262 117.199 304.923 118.003C307.39 121.118 312.378 120.645 315.93 120.908C316.195 120.93 316.46 120.881 316.7 120.768C316.995 120.966 317.305 121.141 317.627 121.293L318.188 121.52C318.181 121.602 318.181 121.684 318.188 121.765C318.783 123.935 317.365 125.738 318.835 127.838C319.348 128.614 320.078 129.223 320.935 129.588C321.215 129.71 321.845 129.745 322.037 129.92C322.982 130.778 322.23 132.615 321.775 133.42C321.668 133.617 321.603 133.835 321.583 134.058C321.563 134.282 321.589 134.507 321.66 134.72C321.73 134.933 321.843 135.13 321.993 135.297C322.142 135.465 322.324 135.6 322.527 135.695C322.631 135.907 322.774 136.096 322.948 136.255C323.041 136.564 323.243 136.828 323.517 136.999C323.79 137.169 324.117 137.235 324.435 137.183C326.952 136.752 329.264 135.525 331.032 133.683C332.064 132.979 333.052 132.214 333.99 131.39C337.245 127.715 340.57 123.62 341.813 118.755C342.09 117.692 342.237 116.599 342.25 115.5Z" fill="#653200"/>
<path d="M328.723 234.605C322.481 280.299 313.954 325.652 303.173 370.493C302.648 372.68 306.025 373.608 306.55 371.42C317.331 326.579 325.859 281.227 332.1 235.532C332.398 233.345 329.02 232.382 328.723 234.605Z" fill="#063507"/>
<path d="M296.715 181.475L309.683 176.12L299.095 203.333L296.715 181.475Z" fill="#7DB53C"/>
<defs>
<linearGradient id="paint0_linear_48_537" x1="364.948" y1="416.185" x2="341.778" y2="401.625" gradientUnits="userSpaceOnUse">
<stop stop-opacity="0"/>
<stop offset="1"/>
</linearGradient>
<linearGradient id="paint1_linear_48_537" x1="251.967" y1="341.915" x2="222.847" y2="323.295" gradientUnits="userSpaceOnUse">
<stop stop-opacity="0"/>
<stop offset="1"/>
</linearGradient>
<linearGradient id="paint2_linear_48_537" x1="506.067" y1="342.843" x2="469.65" y2="316.575" gradientUnits="userSpaceOnUse">
<stop stop-opacity="0"/>
<stop offset="1"/>
</linearGradient>
<linearGradient id="paint3_linear_48_537" x1="443.995" y1="306.443" x2="415.715" y2="288.365" gradientUnits="userSpaceOnUse">
<stop stop-opacity="0"/>
<stop offset="1"/>
</linearGradient>
<linearGradient id="paint4_linear_48_537" x1="418.638" y1="324.852" x2="390.358" y2="306.775" gradientUnits="userSpaceOnUse">
<stop stop-opacity="0"/>
<stop offset="1"/>
</linearGradient>
<linearGradient id="paint5_linear_48_537" x1="421" y1="293.947" x2="392.737" y2="275.87" gradientUnits="userSpaceOnUse">
<stop stop-opacity="0"/>
<stop offset="1"/>
</linearGradient>
<linearGradient id="paint6_linear_48_537" x1="252.598" y1="408.012" x2="293.968" y2="345.957" gradientUnits="userSpaceOnUse">
<stop offset="0.01" stop-color="white" stop-opacity="0"/>
<stop offset="1" stop-color="#29ABE2"/>
</linearGradient>
</defs>
</svg>
