<svg width="800" height="600" viewBox="0 0 800 600" fill="none" xmlns="http://www.w3.org/2000/svg">
<path d="M406.26 181.42C406.26 181.42 429.4 166.84 469.24 198.68C509.08 230.52 520.3 146.68 564.22 166.14C608.14 185.6 577.48 216.26 640.8 221.34C704.12 226.42 709.4 239.6 706.26 288.16C703.12 336.72 650.04 324.36 664.26 371.9C678.48 419.44 635.64 429.66 600.92 426.6C566.2 423.54 562.12 365.26 516.16 383.16C470.2 401.06 455.56 363.16 406.16 394.9L308.94 366.22L231.98 326.22L220.34 241.32L298.2 201.32L406.26 181.42Z" fill="#24285B"/>
<path opacity="0.45" d="M392.3 535.94C555.809 535.94 688.36 525.589 688.36 512.82C688.36 500.051 555.809 489.7 392.3 489.7C228.791 489.7 96.24 500.051 96.24 512.82C96.24 525.589 228.791 535.94 392.3 535.94Z" fill="#E6E6E6"/>
<path d="M178.54 501.76C178.54 501.76 180.54 508.22 186.18 509.02C191.82 509.82 193.08 515.48 187.86 516.66C182.64 517.84 169.7 510.52 169.7 510.52L170.74 500.06L178.54 501.76Z" fill="#69B97E"/>
<path d="M296.4 501.76C296.4 501.76 298.4 508.22 304.04 509.02C309.68 509.82 310.94 515.48 305.72 516.66C300.5 517.84 287.56 510.52 287.56 510.52L288.6 500.06L296.4 501.76Z" fill="#69B97E"/>
<path d="M156 366.22L174.38 400.52C182.265 415.232 184.253 432.395 179.94 448.52L165.58 502.42H182.56L207.3 442C212.348 429.773 214.033 416.418 212.18 403.32L209.84 386.64C209.782 385.761 210.017 384.887 210.506 384.155C210.996 383.422 211.714 382.872 212.548 382.59C213.382 382.307 214.287 382.308 215.121 382.591C215.955 382.875 216.671 383.427 217.16 384.16L284 502.38H301.42L232 344C232 344 211.04 337.62 156 366.22Z" fill="#24285B"/>
<path d="M159.72 218.96C159.72 218.96 203.72 214.38 215 264.42C226.28 314.46 281.18 344 281.18 344L200.5 314.68L159.72 218.96Z" fill="#69B97E"/>
<path opacity="0.08" d="M159.72 218.96C159.72 218.96 203.72 214.38 215 264.42C226.28 314.46 281.18 344 281.18 344L200.5 314.68L159.72 218.96Z" fill="black"/>
<path d="M139.38 177.18C140.429 182.816 140.718 188.567 140.24 194.28C140.138 194.962 139.901 195.617 139.543 196.207C139.184 196.796 138.712 197.308 138.153 197.712C137.594 198.116 136.96 198.405 136.288 198.561C135.616 198.717 134.92 198.737 134.24 198.62C132.047 198.413 129.96 197.579 128.229 196.217C126.499 194.855 125.197 193.023 124.48 190.94L120.48 182.28C119.871 180.445 119.855 178.466 120.433 176.621C121.01 174.776 122.153 173.16 123.7 172C129.06 167.3 138.52 170.94 139.38 177.18Z" fill="#F4A28C"/>
<path d="M121.22 187.54L122.82 221.28L141.36 219.08L132.74 195.42L121.22 187.54Z" fill="#F4A28C"/>
<path d="M120 190.36C120.02 190.575 120.112 190.776 120.261 190.932C120.41 191.088 120.607 191.19 120.82 191.22C122.292 191.487 123.811 191.263 125.144 190.584C126.477 189.905 127.55 188.808 128.2 187.46C128.978 185.972 129.303 184.29 129.136 182.619C128.969 180.949 128.317 179.364 127.26 178.06C130.437 178.357 133.638 178.29 136.8 177.86C137.913 177.734 138.996 177.416 140 176.92L141.88 168.92C141.88 168.92 145.34 160.8 140.64 159.58C135.94 158.36 134.3 163.74 130.28 160.34C126.26 156.94 125.22 155.68 121.6 158C117.98 160.32 122.58 163 116.34 163.56C110.1 164.12 110.22 166.68 110.34 169.56C110.6 170.503 111.128 171.351 111.86 172C116.503 177.069 119.361 183.516 120 190.36Z" fill="#24285B"/>
<path d="M129.34 187.04C129.34 187.04 128.88 183.04 125.94 183.7C123 184.36 123.64 190 127.74 190.12L129.34 187.04Z" fill="#F4A28C"/>
<path d="M140.24 183.62L143.5 187.28C143.692 187.49 143.826 187.745 143.891 188.021C143.956 188.297 143.949 188.586 143.871 188.858C143.793 189.131 143.646 189.379 143.444 189.579C143.243 189.779 142.993 189.924 142.72 190L138.88 191.14L140.24 183.62Z" fill="#F4A28C"/>
<path d="M122.82 221.28L141.36 219.08C141.36 219.08 189.2 209.84 201.82 257.4C209.423 285.897 213.843 315.149 215 344.62L156 366.22C156 366.22 1.22003 260.88 122.82 221.28Z" fill="#69B97E"/>
<path opacity="0.08" d="M121.22 245.3C121.22 245.3 144 304 212 306.64L204.36 348.48L156 366.22C156 366.22 90 319.22 78.18 279.56L121.22 245.3Z" fill="black"/>
<path d="M406.26 394.9H317.38C250.84 394.9 196.7 347.02 196.7 288.16C196.7 229.3 250.84 181.42 317.38 181.42H406.26V227.42H317.38C276.2 227.42 242.7 254.66 242.7 288.16C242.7 321.66 276.2 348.9 317.38 348.9H406.26V394.9Z" fill="#C9C9C9"/>
<path d="M406.26 181.42H343.14V227.42H406.26V181.42Z" fill="#E6E6E6"/>
<path d="M406.26 348.9H343.14V394.9H406.26V348.9Z" fill="#E6E6E6"/>
<path d="M127.64 255.7C115.86 223.2 66 238.76 75.36 272C77.98 281.4 84.46 292.14 97.06 304C147.52 351.68 207.06 359.82 256.74 334.22L248.58 322.22C248.58 322.22 161.42 338 130.1 265.16C129.599 261.932 128.775 258.763 127.64 255.7Z" fill="#69B97E"/>
<path opacity="0.46" d="M127.64 255.7C115.86 223.2 66 238.76 75.36 272C77.98 281.4 84.46 292.14 97.06 304C147.52 351.68 207.06 359.82 256.74 334.22L248.58 322.22C248.58 322.22 161.42 338 130.1 265.16C129.599 261.932 128.775 258.763 127.64 255.7Z" fill="white"/>
<path d="M250 324.44C250.518 322.932 251.401 321.574 252.569 320.489C253.738 319.404 255.157 318.625 256.7 318.22C261.74 317.2 274.86 326.64 256.7 334.34L250 324.44Z" fill="#F4A28C"/>
<path d="M272.38 336.6C272.38 336.6 283.52 333.78 284.06 342.5C284.6 351.22 271.06 346.14 272.38 336.6Z" fill="#F4A28C"/>
<path d="M512.72 211.1C523.158 211.1 531.62 202.638 531.62 192.2C531.62 181.762 523.158 173.3 512.72 173.3C502.282 173.3 493.82 181.762 493.82 192.2C493.82 202.638 502.282 211.1 512.72 211.1Z" fill="#69B97E"/>
<path d="M662.56 382.12C672.998 382.12 681.46 373.658 681.46 363.22C681.46 352.782 672.998 344.32 662.56 344.32C652.122 344.32 643.66 352.782 643.66 363.22C643.66 373.658 652.122 382.12 662.56 382.12Z" fill="#69B97E"/>
<path d="M480.32 396.54C487.676 396.54 493.64 390.576 493.64 383.22C493.64 375.863 487.676 369.9 480.32 369.9C472.964 369.9 467 375.863 467 383.22C467 390.576 472.964 396.54 480.32 396.54Z" fill="#69B97E"/>
<path d="M578.98 251.96C582.658 251.96 585.64 248.978 585.64 245.3C585.64 241.622 582.658 238.64 578.98 238.64C575.302 238.64 572.32 241.622 572.32 245.3C572.32 248.978 575.302 251.96 578.98 251.96Z" fill="#69B97E"/>
<path d="M624.86 303.64C631.134 303.64 636.22 298.554 636.22 292.28C636.22 286.006 631.134 280.92 624.86 280.92C618.586 280.92 613.5 286.006 613.5 292.28C613.5 298.554 618.586 303.64 624.86 303.64Z" fill="white"/>
<path d="M438.74 238.58C442.44 238.58 445.44 235.58 445.44 231.88C445.44 228.18 442.44 225.18 438.74 225.18C435.04 225.18 432.04 228.18 432.04 231.88C432.04 235.58 435.04 238.58 438.74 238.58Z" fill="white"/>
<path d="M572.28 376.62C575.98 376.62 578.98 373.621 578.98 369.92C578.98 366.22 575.98 363.22 572.28 363.22C568.58 363.22 565.58 366.22 565.58 369.92C565.58 373.621 568.58 376.62 572.28 376.62Z" fill="white"/>
<path d="M522.3 309.32C532.164 309.32 540.16 301.324 540.16 291.46C540.16 281.596 532.164 273.6 522.3 273.6C512.436 273.6 504.44 281.596 504.44 291.46C504.44 301.324 512.436 309.32 522.3 309.32Z" fill="#FFD200"/>
<path d="M677.48 241.46C684.417 241.46 690.04 235.837 690.04 228.9C690.04 221.963 684.417 216.34 677.48 216.34C670.543 216.34 664.92 221.963 664.92 228.9C664.92 235.837 670.543 241.46 677.48 241.46Z" fill="#FFD200"/>
<path d="M437.1 327.38C440.568 327.38 443.38 324.568 443.38 321.1C443.38 317.631 440.568 314.82 437.1 314.82C433.632 314.82 430.82 317.631 430.82 321.1C430.82 324.568 433.632 327.38 437.1 327.38Z" fill="#FFD200"/>
<path d="M98.96 82.7202V119.46H122.7L127.88 134.08L134.02 119.46H157.76V82.7202H98.96Z" fill="#E6E6E6"/>
<path opacity="0.12" d="M125.4 109.3C125.132 109.285 124.87 109.214 124.632 109.089C124.394 108.965 124.185 108.792 124.02 108.58L117.82 100.58C117.545 100.194 117.429 99.7159 117.498 99.2465C117.566 98.7771 117.813 98.3523 118.187 98.0607C118.562 97.7691 119.034 97.6333 119.506 97.6816C119.978 97.7299 120.413 97.9586 120.72 98.3199L125.6 104.6L137.6 91.5999C137.757 91.3981 137.954 91.2311 138.179 91.1096C138.404 90.9882 138.652 90.9149 138.906 90.8945C139.161 90.8741 139.417 90.9071 139.659 90.9912C139.9 91.0753 140.121 91.2088 140.308 91.3832C140.495 91.5576 140.644 91.7689 140.744 92.0039C140.845 92.2388 140.896 92.4922 140.893 92.7478C140.89 93.0034 140.834 93.2556 140.729 93.4884C140.623 93.7212 140.47 93.9295 140.28 94.0999L126.78 108.68C126.608 108.876 126.396 109.033 126.157 109.14C125.919 109.247 125.661 109.302 125.4 109.3Z" fill="black"/>
</svg>
