<svg xmlns="http://www.w3.org/2000/svg" width="100" height="100" viewBox="0 0 100 100" fill="none">
  <path d="M49.736 90.462L7.14001 66.756C7.03666 66.6987 6.95053 66.6148 6.89055 66.513C6.83058 66.4111 6.79895 66.2951 6.79895 66.177C6.79895 66.0588 6.83058 65.9428 6.89055 65.841C6.95053 65.7392 7.03666 65.6552 7.14001 65.598L49.74 41.894C49.8381 41.8389 49.9486 41.8101 50.061 41.8101C50.1734 41.8101 50.284 41.8389 50.382 41.894L92.974 65.6C93.0774 65.6572 93.1635 65.7412 93.2235 65.843C93.2834 65.9448 93.3151 66.0608 93.3151 66.179C93.3151 66.2971 93.2834 66.4131 93.2235 66.515C93.1635 66.6168 93.0774 66.7007 92.974 66.758L50.374 90.464C50.276 90.517 50.1662 90.5447 50.0548 90.5443C49.9433 90.544 49.8337 90.5157 49.736 90.462Z" fill="#333B72"/>
  <path d="M49.478 41.936L13.04 62.214L50.04 82.814C50.1387 82.8681 50.2495 82.8964 50.362 82.8964C50.4746 82.8964 50.5853 82.8681 50.684 82.814L87.12 62.534L50.12 41.934C50.0218 41.8793 49.9112 41.8507 49.7988 41.8511C49.6864 41.8514 49.5759 41.8807 49.478 41.936Z" fill="#151B47"/>
  <path d="M49.622 75.2158L7.02197 51.5118C6.91862 51.4545 6.83248 51.3706 6.77251 51.2688C6.71254 51.167 6.68091 51.051 6.68091 50.9328C6.68091 50.8147 6.71254 50.6986 6.77251 50.5968C6.83248 50.495 6.91862 50.4111 7.02197 50.3538L49.622 26.6498C49.72 26.5948 49.8305 26.5659 49.943 26.5659C50.0554 26.5659 50.1659 26.5948 50.264 26.6498L92.864 50.3538C92.9673 50.4111 93.0535 50.495 93.1134 50.5968C93.1734 50.6986 93.205 50.8147 93.205 50.9328C93.205 51.051 93.1734 51.167 93.1134 51.2688C93.0535 51.3706 92.9673 51.4545 92.864 51.5118L50.264 75.2158C50.1659 75.2708 50.0554 75.2997 49.943 75.2997C49.8305 75.2997 49.72 75.2708 49.622 75.2158Z" fill="#0099F5"/>
  <path d="M49.364 26.6898L12.926 46.9698L49.926 67.5698C50.0247 67.6239 50.1355 67.6523 50.248 67.6523C50.3606 67.6523 50.4713 67.6239 50.57 67.5698L87.006 47.2898L50.006 26.6898C49.9076 26.6361 49.7972 26.6079 49.685 26.6079C49.5729 26.6079 49.4625 26.6361 49.364 26.6898Z" fill="#0086F4"/>
  <path d="M49.7081 60.21L7.10806 36.504C7.00519 36.4465 6.91952 36.3627 6.85988 36.2611C6.80024 36.1595 6.7688 36.0438 6.7688 35.926C6.7688 35.8082 6.80024 35.6925 6.85988 35.5909C6.91952 35.4893 7.00519 35.4054 7.10806 35.348L49.7081 11.642C49.8065 11.587 49.9173 11.5581 50.0301 11.5581C50.1428 11.5581 50.2537 11.587 50.3521 11.642L92.9521 35.348C93.0549 35.4054 93.1406 35.4893 93.2002 35.5909C93.2599 35.6925 93.2913 35.8082 93.2913 35.926C93.2913 36.0438 93.2599 36.1595 93.2002 36.2611C93.1406 36.3627 93.0549 36.4465 92.9521 36.504L50.3521 60.21C50.2537 60.265 50.1428 60.2939 50.0301 60.2939C49.9173 60.2939 49.8065 60.265 49.7081 60.21Z" fill="#E2E2E2"/>
</svg>